<svg width="24" height="24" viewBox="0 0 24 24" fill="none" xmlns="http://www.w3.org/2000/svg">
<path d="M18 9.44998C18.0005 9.54852 17.9813 9.64616 17.9435 9.73717C17.9057 9.82819 17.8501 9.91074 17.78 9.97998L12.78 14.98C12.6781 15.0829 12.5565 15.1643 12.4225 15.2192C12.2885 15.2742 12.1448 15.3017 12 15.3C11.8553 15.3006 11.712 15.2726 11.5781 15.2177C11.4443 15.1628 11.3226 15.082 11.22 14.98L6.22001 9.97998C6.07956 9.83936 6.00067 9.64873 6.00067 9.44998C6.00067 9.25123 6.07956 9.06061 6.22001 8.91998C6.28896 8.84922 6.37137 8.79299 6.4624 8.75459C6.55343 8.71619 6.65122 8.69641 6.75001 8.69641C6.8488 8.69641 6.9466 8.71619 7.03762 8.75459C7.12865 8.79299 7.21107 8.84922 7.28001 8.91998L12 13.64L16.72 8.91998C16.789 8.84922 16.8714 8.79299 16.9624 8.75459C17.0534 8.71619 17.1512 8.69641 17.25 8.69641C17.3488 8.69641 17.4466 8.71619 17.5376 8.75459C17.6287 8.79299 17.7111 8.84922 17.78 8.91998C17.8506 8.98888 17.9065 9.07137 17.9443 9.16246C17.9821 9.25355 18.001 9.35136 18 9.44998Z" fill="black"/>
</svg>
