<svg width="24" height="24" viewBox="0 0 24 24" fill="none" xmlns="http://www.w3.org/2000/svg">
<path d="M12 20.09C11.8368 20.0909 11.6751 20.0595 11.5241 19.9977C11.3731 19.9359 11.2358 19.845 11.12 19.73L6 14.61C5.92631 14.5414 5.86721 14.4586 5.82622 14.3666C5.78523 14.2746 5.76319 14.1752 5.76141 14.0745C5.75963 13.9738 5.77816 13.8738 5.81588 13.7804C5.8536 13.687 5.90974 13.6022 5.98096 13.531C6.05218 13.4598 6.13701 13.4036 6.2304 13.3659C6.32379 13.3282 6.42382 13.3096 6.52452 13.3114C6.62523 13.3132 6.72454 13.3352 6.81654 13.3762C6.90854 13.4172 6.99134 13.4763 7.06 13.55L12 18.49L16.94 13.55C17.0822 13.4175 17.2702 13.3454 17.4645 13.3488C17.6588 13.3523 17.8442 13.431 17.9816 13.5684C18.119 13.7058 18.1977 13.8912 18.2012 14.0855C18.2046 14.2798 18.1325 14.4678 18 14.61L12.88 19.73C12.7642 19.845 12.6269 19.9359 12.4759 19.9977C12.3249 20.0595 12.1632 20.0909 12 20.09ZM18 10.63C18.1405 10.4894 18.2193 10.2988 18.2193 10.1C18.2193 9.90126 18.1405 9.71064 18 9.57001L12.88 4.46001C12.7647 4.34391 12.6276 4.25177 12.4766 4.18888C12.3256 4.126 12.1636 4.09363 12 4.09363C11.8364 4.09363 11.6744 4.126 11.5234 4.18888C11.3724 4.25177 11.2353 4.34391 11.12 4.46001L6 9.57001C5.85955 9.71064 5.78066 9.90126 5.78066 10.1C5.78066 10.2988 5.85955 10.4894 6 10.63C6.06895 10.7008 6.15136 10.757 6.24239 10.7954C6.33341 10.8338 6.43121 10.8536 6.53 10.8536C6.62879 10.8536 6.72659 10.8338 6.81761 10.7954C6.90864 10.757 6.99105 10.7008 7.06 10.63L12 5.70001L16.94 10.63C17.0089 10.7006 17.0914 10.7565 17.1825 10.7943C17.2736 10.8321 17.3714 10.851 17.47 10.85C17.5685 10.8505 17.6662 10.8313 17.7572 10.7935C17.8482 10.7557 17.9308 10.7001 18 10.63Z" fill="black"/>
</svg>
