<svg width="24" height="25" viewBox="0 0 24 25" fill="none" xmlns="http://www.w3.org/2000/svg">
<path d="M21.1612 5.6748C21.1622 5.66195 21.1622 5.64904 21.1612 5.63618V3.20683C21.1633 2.71037 21.0485 2.22041 20.826 1.77656C20.6036 1.33272 20.2798 0.947458 19.8809 0.651951C19.4781 0.347677 19.0094 0.142169 18.5127 0.0519476C18.016 -0.0382736 17.505 -0.0106906 17.0209 0.132479H16.9881L3.0589 5.58404C3.01367 5.60229 2.97033 5.62493 2.92951 5.65163C2.09388 5.85959 1.35172 6.34084 0.820936 7.01893C0.290155 7.69701 0.00120648 8.53303 0 9.39415V24.7195H20.1378C21.1621 24.7195 22.1445 24.3126 22.8688 23.5883C23.5931 22.864 24 21.8816 24 20.8573V9.39415C23.9989 8.54899 23.7207 7.72752 23.2079 7.05569C22.6952 6.38386 21.9762 5.89877 21.1612 5.6748ZM17.4844 1.60786C17.7341 1.53889 17.9964 1.52828 18.2508 1.57683C18.5053 1.62539 18.7452 1.73181 18.952 1.88787C19.1579 2.04064 19.325 2.23954 19.44 2.4686C19.5551 2.69766 19.6148 2.9505 19.6144 3.20683V5.52418H7.43869L17.4844 1.60786ZM22.4551 20.8573C22.4551 21.4719 22.211 22.0613 21.7764 22.4959C21.3418 22.9305 20.7524 23.1746 20.1378 23.1746H1.5449V9.39415C1.5449 8.77955 1.78905 8.19012 2.22363 7.75553C2.65822 7.32095 3.24765 7.0768 3.86225 7.0768H20.1378C20.7524 7.0768 21.3418 7.32095 21.7764 7.75553C22.211 8.19012 22.4551 8.77955 22.4551 9.39415V20.8573ZM18.0135 12.3488C17.4643 12.3488 16.9274 12.5116 16.4707 12.8168C16.0141 13.1219 15.6581 13.5556 15.4479 14.063C15.2378 14.5704 15.1828 15.1288 15.2899 15.6675C15.3971 16.2062 15.6615 16.701 16.0499 17.0893C16.4383 17.4777 16.9331 17.7422 17.4718 17.8493C18.0104 17.9565 18.5688 17.9015 19.0762 17.6913C19.5836 17.4811 20.0173 17.1252 20.3225 16.6685C20.6276 16.2118 20.7905 15.6749 20.7905 15.1257C20.7895 14.3899 20.4968 13.6844 19.9767 13.1639C19.4565 12.6434 18.7513 12.3503 18.0154 12.3488H18.0135ZM18.0135 16.3578C17.7698 16.3578 17.5316 16.2855 17.329 16.1501C17.1264 16.0148 16.9685 15.8223 16.8752 15.5972C16.782 15.3721 16.7576 15.1244 16.8051 14.8854C16.8527 14.6464 16.97 14.4268 17.1423 14.2545C17.3146 14.0822 17.5342 13.9649 17.7732 13.9173C18.0122 13.8698 18.2599 13.8942 18.485 13.9874C18.7101 14.0807 18.9026 14.2386 19.0379 14.4412C19.1733 14.6438 19.2456 14.882 19.2456 15.1257C19.2451 15.452 19.1154 15.7648 18.8848 15.9957C18.6543 16.2266 18.3417 16.3568 18.0154 16.3578H18.0135Z" fill="black"/>
</svg>
