<svg width="24" height="24" viewBox="0 0 24 24" fill="none" xmlns="http://www.w3.org/2000/svg">
<path fill-rule="evenodd" clip-rule="evenodd" d="M18 3H21.75C22.3467 3 22.919 3.23705 23.341 3.65901C23.7629 4.08097 24 4.65326 24 5.25V21.75C24 22.3467 23.7629 22.919 23.341 23.341C22.919 23.7629 22.3467 24 21.75 24H2.25C1.65326 24 1.08097 23.7629 0.65901 23.341C0.237053 22.919 0 22.3467 0 21.75V5.25C0 4.65326 0.237053 4.08097 0.65901 3.65901C1.08097 3.23705 1.65326 3 2.25 3H6V0.75C6 0.551088 6.07902 0.360322 6.21967 0.21967C6.36032 0.0790176 6.55109 0 6.75 0C6.94891 0 7.13968 0.0790176 7.28033 0.21967C7.42098 0.360322 7.5 0.551088 7.5 0.75V3H16.5V0.75C16.5 0.551088 16.579 0.360322 16.7197 0.21967C16.8603 0.0790176 17.0511 0 17.25 0C17.4489 0 17.6397 0.0790176 17.7803 0.21967C17.921 0.360322 18 0.551088 18 0.75V3ZM22.2803 22.2803C22.421 22.1397 22.5 21.9489 22.5 21.75V5.25C22.5 5.05109 22.421 4.86032 22.2803 4.71967C22.1397 4.57902 21.9489 4.5 21.75 4.5H18V6C18 6.19891 17.921 6.38968 17.7803 6.53033C17.6397 6.67098 17.4489 6.75 17.25 6.75C17.0511 6.75 16.8603 6.67098 16.7197 6.53033C16.579 6.38968 16.5 6.19891 16.5 6V4.5H7.5V6C7.5 6.19891 7.42098 6.38968 7.28033 6.53033C7.13968 6.67098 6.94891 6.75 6.75 6.75C6.55109 6.75 6.36032 6.67098 6.21967 6.53033C6.07902 6.38968 6 6.19891 6 6V4.5H2.25C2.05109 4.5 1.86032 4.57902 1.71967 4.71967C1.57902 4.86032 1.5 5.05109 1.5 5.25V21.75C1.5 21.9489 1.57902 22.1397 1.71967 22.2803C1.86032 22.421 2.05109 22.5 2.25 22.5H21.75C21.9489 22.5 22.1397 22.421 22.2803 22.2803Z" fill="black"/>
<path fill-rule="evenodd" clip-rule="evenodd" d="M18.75 9H9.75C9.55109 9 9.36032 9.07902 9.21967 9.21967C9.07902 9.36032 9 9.55109 9 9.75V13.5H5.25C5.05109 13.5 4.86032 13.579 4.71967 13.7197C4.57902 13.8603 4.5 14.0511 4.5 14.25V18.75C4.5 18.9489 4.57902 19.1397 4.71967 19.2803C4.86032 19.421 5.05109 19.5 5.25 19.5H18.75C18.9489 19.5 19.1397 19.421 19.2803 19.2803C19.421 19.1397 19.5 18.9489 19.5 18.75V9.75C19.5 9.55109 19.421 9.36032 19.2803 9.21967C19.1397 9.07902 18.9489 9 18.75 9ZM18 13.5H15V10.5H18V13.5ZM9 15H6V18H9V15ZM10.5 15H13.5V18H10.5V15ZM15 15V18H18V15H15Z" fill="black"/>
</svg>
