<svg width="24" height="24" viewBox="0 0 24 24" fill="none" xmlns="http://www.w3.org/2000/svg">
<path d="M10.5619 18.75C10.3638 18.7502 10.1737 18.672 10.0331 18.5325L3.87748 12.3975C3.80034 12.3299 3.7379 12.2472 3.69401 12.1545C3.65012 12.0618 3.62571 11.961 3.6223 11.8585C3.61889 11.756 3.63655 11.6538 3.67418 11.5584C3.71181 11.463 3.76862 11.3763 3.84109 11.3037C3.91356 11.2311 4.00015 11.1741 4.09551 11.1363C4.19087 11.0985 4.29297 11.0807 4.3955 11.0839C4.49803 11.0872 4.5988 11.1114 4.69159 11.1551C4.78439 11.1988 4.86722 11.2611 4.93498 11.3382L10.4794 16.8619L18.9956 5.55003C19.0519 5.46441 19.1252 5.39123 19.2109 5.33503C19.2966 5.27882 19.3929 5.24077 19.4938 5.22323C19.5948 5.20568 19.6983 5.20902 19.7979 5.23303C19.8976 5.25705 19.9912 5.30122 20.0731 5.36284C20.155 5.42445 20.2234 5.50219 20.2741 5.59127C20.3248 5.68034 20.3567 5.77886 20.3678 5.88074C20.3789 5.98262 20.369 6.08569 20.3388 6.18361C20.3085 6.28152 20.2585 6.3722 20.1919 6.45003L11.16 18.45C11.0958 18.5362 11.0139 18.6076 10.9198 18.6593C10.8256 18.7111 10.7215 18.742 10.6144 18.75H10.5619Z" fill="black"/>
</svg>
