<svg width="24" height="24" viewBox="0 0 24 24" fill="none" xmlns="http://www.w3.org/2000/svg">
<path d="M10.6163 17.5388C10.5176 17.5386 10.42 17.519 10.3289 17.481C10.2378 17.443 10.1552 17.3875 10.0856 17.3175L5.32501 12.5625C5.24972 12.4943 5.18907 12.4115 5.14675 12.3191C5.10443 12.2267 5.08132 12.1267 5.07882 12.0252C5.07632 11.9236 5.09448 11.8226 5.1322 11.7283C5.16993 11.6339 5.22642 11.5482 5.29826 11.4764C5.37011 11.4045 5.45579 11.3481 5.55013 11.3103C5.64447 11.2726 5.74549 11.2544 5.84705 11.2569C5.94862 11.2594 6.04862 11.2826 6.14099 11.3249C6.23336 11.3672 6.31616 11.4278 6.38438 11.5031L10.5338 15.6469L16.7213 7.39688C16.8406 7.23775 17.0183 7.13255 17.2152 7.10442C17.3127 7.09049 17.412 7.0959 17.5074 7.12035C17.6028 7.14479 17.6925 7.18779 17.7713 7.24688C17.85 7.30598 17.9164 7.38001 17.9666 7.46476C18.0168 7.54951 18.0498 7.64331 18.0637 7.74081C18.0776 7.83832 18.0722 7.93761 18.0478 8.03302C18.0233 8.12843 17.9804 8.21809 17.9213 8.29688L11.2163 17.2388C11.1512 17.3243 11.0688 17.395 10.9744 17.4464C10.8801 17.4978 10.7759 17.5286 10.6688 17.5369L10.6163 17.5388ZM24 12C24 9.62663 23.2962 7.30655 21.9776 5.33316C20.6591 3.35977 18.7849 1.8217 16.5922 0.913451C14.3995 0.00519937 11.9867 -0.232441 9.65892 0.230582C7.33115 0.693605 5.19295 1.83649 3.51472 3.51472C1.83649 5.19295 0.693605 7.33115 0.230582 9.65892C-0.232441 11.9867 0.00519937 14.3995 0.913451 16.5922C1.8217 18.7849 3.35977 20.6591 5.33316 21.9776C7.30655 23.2962 9.62663 24 12 24C15.1815 23.9965 18.2318 22.7311 20.4814 20.4814C22.7311 18.2318 23.9965 15.1815 24 12ZM22.5 12C22.5 14.0767 21.8842 16.1068 20.7304 17.8335C19.5767 19.5602 17.9368 20.906 16.0182 21.7007C14.0996 22.4955 11.9884 22.7034 9.95156 22.2983C7.91476 21.8931 6.04384 20.8931 4.57538 19.4246C3.10693 17.9562 2.1069 16.0853 1.70176 14.0485C1.29662 12.0117 1.50455 9.90045 2.29927 7.98183C3.09399 6.06321 4.4398 4.42333 6.16652 3.26957C7.89323 2.11582 9.9233 1.50001 12 1.50001C14.7839 1.50298 17.4529 2.61019 19.4213 4.57867C21.3898 6.54716 22.497 9.21615 22.5 12Z" fill="black"/>
</svg>
