<svg width="24" height="24" viewBox="0 0 24 24" fill="none" xmlns="http://www.w3.org/2000/svg">
<path d="M10.5 6C10.5 5.70333 10.588 5.41332 10.7528 5.16665C10.9176 4.91997 11.1519 4.72771 11.426 4.61418C11.7001 4.50065 12.0017 4.47094 12.2926 4.52882C12.5836 4.5867 12.8509 4.72956 13.0607 4.93934C13.2704 5.14912 13.4133 5.41639 13.4712 5.70737C13.5291 5.99834 13.4994 6.29994 13.3858 6.57403C13.2723 6.84811 13.08 7.08238 12.8334 7.24721C12.5867 7.41203 12.2967 7.5 12 7.5C11.6022 7.5 11.2206 7.34197 10.9393 7.06066C10.658 6.77936 10.5 6.39783 10.5 6ZM12 10.5C11.7033 10.5 11.4133 10.588 11.1666 10.7528C10.92 10.9176 10.7277 11.1519 10.6142 11.426C10.5006 11.7001 10.4709 12.0017 10.5288 12.2926C10.5867 12.5836 10.7296 12.8509 10.9393 13.0607C11.1491 13.2704 11.4164 13.4133 11.7074 13.4712C11.9983 13.5291 12.2999 13.4994 12.574 13.3858C12.8481 13.2723 13.0824 13.08 13.2472 12.8334C13.412 12.5867 13.5 12.2967 13.5 12C13.5 11.6022 13.342 11.2206 13.0607 10.9393C12.7794 10.658 12.3978 10.5 12 10.5ZM10.5 18C10.5 17.7033 10.588 17.4133 10.7528 17.1666C10.9176 16.92 11.1519 16.7277 11.426 16.6142C11.7001 16.5007 12.0017 16.4709 12.2926 16.5288C12.5836 16.5867 12.8509 16.7296 13.0607 16.9393C13.2704 17.1491 13.4133 17.4164 13.4712 17.7074C13.5291 17.9983 13.4994 18.2999 13.3858 18.574C13.2723 18.8481 13.08 19.0824 12.8334 19.2472C12.5867 19.412 12.2967 19.5 12 19.5C11.6022 19.5 11.2206 19.342 10.9393 19.0607C10.658 18.7794 10.5 18.3978 10.5 18Z" fill="black"/>
</svg>
