<svg width="24" height="24" viewBox="0 0 24 24" fill="none" xmlns="http://www.w3.org/2000/svg">
<path fill-rule="evenodd" clip-rule="evenodd" d="M12 0C9.62663 0 7.30655 0.703788 5.33316 2.02236C3.35977 3.34094 1.8217 5.21509 0.913451 7.4078C0.00519955 9.60051 -0.232441 12.0133 0.230582 14.3411C0.693605 16.6689 1.83649 18.8071 3.51472 20.4853C5.19295 22.1635 7.33115 23.3064 9.65892 23.7694C11.9867 24.2324 14.3995 23.9948 16.5922 23.0866C18.7849 22.1783 20.6591 20.6402 21.9776 18.6668C23.2962 16.6935 24 14.3734 24 12C23.9965 8.81847 22.7311 5.76824 20.4815 3.51856C18.2318 1.26887 15.1815 0.0034741 12 0ZM19.965 18.8287L16.6725 15.5363L19.2244 12.9844L21.8494 15.6094C21.4182 16.7862 20.78 17.8765 19.965 18.8287ZM13.065 19.155L15.69 21.78C15.6979 21.7868 15.7038 21.7943 15.7105 21.8029L15.7105 21.8029C15.7149 21.8085 15.7197 21.8146 15.7256 21.8212C16.8942 21.3766 17.9737 20.7263 18.9131 19.9012L15.615 16.6031L13.065 19.155ZM8.27813 21.8156C7.10957 21.371 6.03004 20.7207 5.09063 19.8956L8.38876 16.5975L10.9388 19.1494L8.31376 21.7744C8.30447 21.7836 8.29801 21.7918 8.29222 21.7991L8.2922 21.7992C8.28747 21.8051 8.28318 21.8106 8.27813 21.8156ZM2.14564 15.6256L2.14313 15.6281V15.6188L2.14564 15.6256ZM4.03501 18.8287C3.21989 17.8817 2.58011 16.797 2.14564 15.6256L4.76813 13.0031L7.32751 15.5363L4.03501 18.8287ZM1.50001 12C1.49949 11.3004 1.56921 10.6025 1.70813 9.91687L3.71626 11.925L1.68751 13.9556C1.56408 13.311 1.5013 12.6563 1.50001 12ZM7.32751 8.31188L4.10438 5.09062C3.27699 6.03359 2.62486 7.11688 2.17876 8.28937C2.2215 8.31684 2.26112 8.34891 2.29688 8.385L4.77563 10.8637L7.32751 8.31188ZM8.46001 2.22188L10.9388 4.70062L8.38876 7.2525L5.17126 4.035C6.12204 3.21423 7.21333 2.57204 8.39251 2.13937C8.41283 2.16859 8.4354 2.19617 8.46001 2.22188ZM18.8288 4.035C17.878 3.21423 16.7867 2.57204 15.6075 2.13937C15.5872 2.16859 15.5646 2.19617 15.54 2.22188L13.0613 4.70062L15.6113 7.2525L18.8288 4.035ZM21.8213 8.28937C21.7785 8.31684 21.7389 8.34891 21.7031 8.385L19.2244 10.8637L16.6725 8.31188L19.8956 5.09062C20.723 6.03359 21.3752 7.11688 21.8213 8.28937ZM15.6113 14.4769L18.1631 11.925L15.6113 9.375L13.0613 11.925L15.6113 14.4769ZM14.5519 8.31188L12 10.8637L9.44813 8.31188L12 5.76187L14.5519 8.31188ZM8.38876 14.4769L10.9388 11.925L8.38876 9.375L5.83688 11.925L8.38876 14.4769ZM9.43876 15.5363L12 12.9863L14.5519 15.5363L12 18.0881L9.43876 15.5363ZM22.2919 9.91687L20.2838 11.925L22.3125 13.9556C22.568 12.6208 22.561 11.249 22.2919 9.91687ZM13.9556 1.6875L12 3.63937L10.0444 1.6875C11.3364 1.44001 12.6636 1.44001 13.9556 1.6875ZM12 20.2087L9.91688 22.2919C11.2918 22.5693 12.7082 22.5693 14.0831 22.2919L12 20.2087Z" fill="black"/>
</svg>
