<svg width="24" height="24" viewBox="0 0 24 24" fill="none" xmlns="http://www.w3.org/2000/svg">
<path fill-rule="evenodd" clip-rule="evenodd" d="M11.2903 23.8217C11.5085 23.9388 11.7523 24.0001 12 24C12.2477 24.0001 12.4915 23.9388 12.7097 23.8217C12.928 23.7045 13.1138 23.5352 13.2506 23.3287C14.04 22.1381 15.8044 19.2919 17.4037 16.185C19.2919 12.5175 20.25 9.8475 20.25 8.25C20.25 6.06196 19.3808 3.96354 17.8336 2.41637C16.2865 0.869194 14.188 0 12 0C9.81196 0 7.71354 0.869194 6.16637 2.41637C4.61919 3.96354 3.75 6.06196 3.75 8.25C3.75 9.8475 4.70813 12.5175 6.59625 16.185C8.19563 19.2919 9.96 22.1381 10.7494 23.3287C10.8862 23.5352 11.072 23.7045 11.2903 23.8217ZM7.22703 3.47703C8.4929 2.21116 10.2098 1.5 12 1.5C13.7902 1.5 15.5071 2.21116 16.773 3.47703C18.0388 4.7429 18.75 6.45979 18.75 8.25C18.75 11.13 14.3531 18.9525 12 22.5C9.64687 18.9525 5.25 11.13 5.25 8.25C5.25 6.45979 5.96116 4.7429 7.22703 3.47703ZM12 12.75C11.8988 12.7501 11.7986 12.7297 11.7055 12.6901C11.6124 12.6505 11.5282 12.5924 11.4581 12.5194L8.0475 8.95688C7.5487 8.43271 7.27519 7.73394 7.28564 7.01045C7.29608 6.28695 7.58965 5.59637 8.10337 5.08682C8.61709 4.57727 9.31004 4.28934 10.0336 4.2848C10.7571 4.28025 11.4537 4.55945 11.9738 5.0625L12 5.08875L12.0281 5.0625C12.2829 4.79684 12.5882 4.58471 12.926 4.43856C13.2639 4.29241 13.6275 4.21517 13.9956 4.21137C14.3637 4.20757 14.7288 4.27729 15.0696 4.41644C15.4104 4.55559 15.7199 4.76138 15.9802 5.02172C16.2404 5.28207 16.446 5.59175 16.585 5.9326C16.724 6.27346 16.7935 6.63863 16.7896 7.00671C16.7856 7.37479 16.7082 7.73837 16.5619 8.07614C16.4156 8.41391 16.2033 8.71908 15.9375 8.97375L12.5456 12.5175C12.4753 12.5913 12.3906 12.65 12.2968 12.69C12.203 12.73 12.102 12.7504 12 12.75ZM9.81375 5.76562C9.88082 5.75597 9.94848 5.75096 10.0162 5.75063C10.3492 5.7529 10.6678 5.88628 10.9031 6.12188L11.4656 6.68438C11.6062 6.82463 11.7967 6.9034 11.9953 6.9034C12.1939 6.9034 12.3844 6.82463 12.525 6.68438L13.0875 6.12188C13.2059 6.00516 13.3462 5.91292 13.5003 5.85042C13.6544 5.78791 13.8193 5.75637 13.9855 5.75759C14.1518 5.75881 14.3162 5.79276 14.4694 5.85752C14.6225 5.92228 14.7614 6.01656 14.8781 6.135C14.9948 6.25344 15.0871 6.3937 15.1496 6.54778C15.2121 6.70187 15.2436 6.86676 15.2424 7.03303C15.2412 7.19931 15.2072 7.36371 15.1425 7.51686C15.0777 7.67002 14.9834 7.80891 14.865 7.92563L12 10.9163L9.12188 7.9125C8.95704 7.74757 8.8409 7.54037 8.78622 7.31369C8.73155 7.08701 8.74046 6.84965 8.81199 6.62771C8.88351 6.40577 9.01487 6.20787 9.19161 6.05577C9.36836 5.90367 9.58363 5.80327 9.81375 5.76562Z" fill="black"/>
</svg>
