<svg width="24" height="24" viewBox="0 0 24 24" fill="none" xmlns="http://www.w3.org/2000/svg">
<path fill-rule="evenodd" clip-rule="evenodd" d="M11.16 23.745C11.4083 23.9119 11.7008 24.0007 12 24C12.2505 23.9996 12.497 23.9374 12.7178 23.819C12.9385 23.7006 13.1267 23.5297 13.2656 23.3213C15.4219 20.0625 20.4375 12.0938 20.4375 8.4525C20.4375 6.21474 19.5486 4.06863 17.9662 2.48629C16.3839 0.903948 14.2378 0.0149993 12 0.0149993C9.76224 0.0149993 7.61612 0.903948 6.03379 2.48629C4.45145 4.06863 3.5625 6.21474 3.5625 8.4525C3.5625 12.09 8.57812 20.0625 10.74 23.3231C10.8509 23.49 10.9936 23.6333 11.16 23.745ZM7.09408 3.54218C8.39458 2.23887 10.1588 1.50447 12 1.5C13.8405 1.50347 15.6046 2.23641 16.9057 3.53821C18.2068 4.84 18.9388 6.60448 18.9412 8.445C18.9412 11.0869 15.3619 17.43 12.0037 22.4925H11.985C5.56125 12.7856 5.0625 9.2925 5.0625 8.4525C5.06299 6.61133 5.79358 4.84549 7.09408 3.54218ZM9.40687 13.1588C9.18244 13.1593 8.96183 13.1006 8.76728 12.9887C8.57274 12.8767 8.41113 12.7155 8.29875 12.5213C8.20177 12.3517 8.14462 12.1623 8.13162 11.9674C8.11863 11.7725 8.15013 11.5772 8.22375 11.3963L8.97375 9.66L7.62188 8.46188C7.42874 8.29263 7.29267 8.06779 7.23231 7.81819C7.17195 7.56859 7.19025 7.30643 7.2847 7.06763C7.37915 6.82883 7.54513 6.62508 7.7599 6.4843C7.97467 6.34352 8.22772 6.2726 8.48438 6.28125H9.99563L10.8356 4.34438C10.8356 4.33172 10.8433 4.31991 10.8512 4.30781C10.855 4.30199 10.8588 4.29609 10.8619 4.29C10.9408 4.13997 11.0486 4.00698 11.179 3.89863C11.3094 3.79028 11.4599 3.7087 11.6218 3.65855C11.7838 3.60839 11.954 3.59066 12.1228 3.60635C12.2916 3.62204 12.4557 3.67086 12.6056 3.75C12.8328 3.87125 13.0188 4.05724 13.14 4.28438C13.14 4.29621 13.1467 4.3073 13.1536 4.31858C13.1576 4.32517 13.1616 4.33183 13.1644 4.33875L14.0044 6.28125H15.5044C15.7595 6.27419 16.0106 6.34581 16.2236 6.48639C16.4365 6.62697 16.6011 6.8297 16.6949 7.06703C16.7887 7.30437 16.8072 7.56483 16.7478 7.81303C16.6884 8.06123 16.5541 8.28514 16.3631 8.45438L15.0225 9.6525L15.7725 11.3794C15.8782 11.6261 15.9034 11.8998 15.8446 12.1617C15.7859 12.4235 15.6461 12.6602 15.4451 12.8381C15.2442 13.016 14.9923 13.1261 14.7253 13.1527C14.4582 13.1793 14.1896 13.121 13.9575 12.9863L12 11.8819L10.0312 12.9919C9.84114 13.1008 9.62596 13.1583 9.40687 13.1588ZM12.375 10.3669C12.2605 10.3027 12.1312 10.2698 12 10.2713C11.8726 10.2717 11.7474 10.3046 11.6363 10.3669L9.87188 11.3625L10.5713 9.75375C10.6348 9.60886 10.6508 9.44759 10.6171 9.29301C10.5835 9.13844 10.5018 8.99847 10.3838 8.89313L9.13125 7.78125H10.4869C10.6329 7.78139 10.7759 7.73889 10.8981 7.65895C11.0203 7.57901 11.1166 7.46512 11.175 7.33125L12 5.4375L12.8231 7.3275C12.8813 7.46172 12.9774 7.576 13.0996 7.65629C13.2219 7.73658 13.365 7.77936 13.5112 7.77938H14.8725L13.6256 8.89125C13.508 8.99646 13.4266 9.1361 13.3929 9.29028C13.3592 9.44446 13.3751 9.60534 13.4381 9.75L14.1375 11.3625L12.375 10.3669Z" fill="black"/>
</svg>
