<svg width="24" height="24" viewBox="0 0 24 24" fill="none" xmlns="http://www.w3.org/2000/svg">
<path fill-rule="evenodd" clip-rule="evenodd" d="M21.75 3.75H2.25C1.65326 3.75 1.08097 3.98705 0.65901 4.40901C0.237053 4.83097 0 5.40326 0 6V18C0 18.5967 0.237053 19.169 0.65901 19.591C1.08097 20.0129 1.65326 20.25 2.25 20.25H21.75C22.3467 20.25 22.919 20.0129 23.341 19.591C23.7629 19.169 24 18.5967 24 18V6C24 5.40326 23.7629 4.83097 23.341 4.40901C22.919 3.98705 22.3467 3.75 21.75 3.75ZM22.5 6V11.8125H12.9938C13.0882 11.7488 13.1767 11.6766 13.2581 11.5969C13.7728 11.0819 14.0619 10.3836 14.0617 9.65559C14.0615 8.92754 13.7721 8.22937 13.2572 7.71469C13.0022 7.45984 12.6995 7.25771 12.3665 7.11984C12.0334 6.98196 11.6764 6.91104 11.3159 6.91113C10.5878 6.91131 9.88969 7.20069 9.375 7.71563C9.30601 7.78565 9.24327 7.86156 9.1875 7.9425V5.25H21.75C21.9489 5.25 22.1397 5.32902 22.2803 5.46967C22.421 5.61032 22.5 5.80109 22.5 6ZM9.47625 11.5031C10.7213 11.2087 11.9156 10.8169 12.1987 10.5356L12.2062 10.5413C12.4363 10.3071 12.5645 9.99151 12.563 9.66325C12.5616 9.33499 12.4305 9.0206 12.1984 8.78849C11.9663 8.55637 11.6519 8.42532 11.3236 8.42385C10.9954 8.42238 10.6798 8.5506 10.4456 8.78063C10.1625 9.06563 9.7725 10.2581 9.47625 11.5031ZM7.51125 11.5031C6.26625 11.2087 5.07375 10.8187 4.79062 10.5356C4.55715 10.3007 4.42658 9.98257 4.42764 9.65133C4.42869 9.3201 4.56128 9.00285 4.79625 8.76938C5.03122 8.5359 5.3493 8.40533 5.68054 8.40638C6.01178 8.40744 6.32903 8.54003 6.5625 8.775C6.84562 9.05625 7.23562 10.2525 7.53187 11.4975L7.51125 11.5031ZM7.6875 5.25H2.25C2.05109 5.25 1.86032 5.32902 1.71967 5.46967C1.57902 5.61032 1.5 5.80109 1.5 6V11.8125H3.99937C3.90488 11.7488 3.81639 11.6766 3.735 11.5969C3.47178 11.3439 3.26166 11.041 3.11695 10.7058C2.97223 10.3707 2.89582 10.01 2.8922 9.64496C2.88857 9.27991 2.9578 8.9178 3.09583 8.57983C3.23385 8.24186 3.43791 7.93482 3.69605 7.67668C3.9542 7.41854 4.26124 7.21448 4.59921 7.07645C4.93717 6.93842 5.29928 6.8692 5.66433 6.87282C6.02938 6.87645 6.39004 6.95286 6.7252 7.09757C7.06036 7.24229 7.36329 7.45241 7.61625 7.71563C7.64138 7.73993 7.66517 7.76559 7.6875 7.7925V5.25ZM1.5 18V13.3125H5.70938L3.64688 15.375C3.50662 15.5156 3.42785 15.7061 3.42785 15.9047C3.42785 16.1033 3.50662 16.2938 3.64688 16.4344C3.71653 16.5041 3.79925 16.5594 3.89029 16.5972C3.98134 16.6349 4.07894 16.6543 4.1775 16.6543C4.27606 16.6543 4.37366 16.6349 4.46471 16.5972C4.55575 16.5594 4.63847 16.5041 4.70813 16.4344L7.6875 13.455V18.75H2.25C2.05109 18.75 1.86032 18.671 1.71967 18.5303C1.57902 18.3897 1.5 18.1989 1.5 18ZM9.1875 18.75H21.75C21.9489 18.75 22.1397 18.671 22.2803 18.5303C22.421 18.3897 22.5 18.1989 22.5 18V13.3106H11.2819L13.3444 15.3731C13.4846 15.5137 13.5634 15.7042 13.5634 15.9028C13.5634 16.1014 13.4846 16.2919 13.3444 16.4325C13.2038 16.5728 13.0133 16.6515 12.8147 16.6515C12.6161 16.6515 12.4256 16.5728 12.285 16.4325L9.1875 13.3369V18.75Z" fill="black"/>
</svg>
