<svg width="24" height="24" viewBox="0 0 24 24" fill="none" xmlns="http://www.w3.org/2000/svg">
<path d="M19.5938 23.9625C19.3948 23.9625 19.2041 23.8835 19.0634 23.7428C18.9228 23.6022 18.8438 23.4114 18.8438 23.2125C18.8438 21.3974 18.1227 19.6567 16.8393 18.3732C15.5558 17.0898 13.8151 16.3688 12 16.3688C10.1849 16.3688 8.44419 17.0898 7.16074 18.3732C5.87729 19.6567 5.15625 21.3974 5.15625 23.2125C5.15625 23.4114 5.07723 23.6022 4.93658 23.7428C4.79593 23.8835 4.60516 23.9625 4.40625 23.9625C4.20734 23.9625 4.01657 23.8835 3.87592 23.7428C3.73527 23.6022 3.65625 23.4114 3.65625 23.2125C3.65625 20.9996 4.53532 18.8773 6.10008 17.3126C7.66483 15.7478 9.7871 14.8688 12 14.8688C14.2129 14.8688 16.3352 15.7478 17.8999 17.3126C19.4647 18.8773 20.3438 20.9996 20.3438 23.2125C20.3438 23.4114 20.2647 23.6022 20.1241 23.7428C19.9834 23.8835 19.7927 23.9625 19.5938 23.9625ZM12 14.5631C11.037 14.568 10.0943 14.2868 9.29124 13.7553C8.4882 13.2238 7.86101 12.4659 7.48914 11.5776C7.11727 10.6893 7.01747 9.71062 7.20238 8.76554C7.38728 7.82047 7.84858 6.95155 8.52781 6.26891C9.20703 5.58626 10.0736 5.1206 11.0178 4.93095C11.9619 4.7413 12.9411 4.83618 13.8312 5.20358C14.7214 5.57098 15.4824 6.19435 16.018 6.99471C16.5535 7.79507 16.8394 8.73639 16.8394 9.69938C16.8409 10.9856 16.3323 12.2199 15.4251 13.1316C14.5179 14.0434 13.2862 14.5582 12 14.5631ZM12 6.33751C11.3336 6.33268 10.6808 6.5259 10.1244 6.89265C9.56801 7.25939 9.13308 7.78315 8.87479 8.39746C8.61651 9.01177 8.54652 9.68896 8.6737 10.3431C8.80088 10.9973 9.11949 11.5989 9.58912 12.0717C10.0588 12.5445 10.6582 12.8671 11.3115 12.9987C11.9648 13.1303 12.6425 13.0648 13.2585 12.8107C13.8745 12.5565 14.4012 12.1251 14.7717 11.5712C15.1421 11.0173 15.3397 10.3658 15.3394 9.69938C15.3414 8.81104 14.9909 7.95819 14.3649 7.32793C13.7388 6.69767 12.8883 6.34148 12 6.33751Z" fill="black"/>
</svg>
