<svg width="24" height="24" viewBox="0 0 24 24" fill="none" xmlns="http://www.w3.org/2000/svg">
<path fill-rule="evenodd" clip-rule="evenodd" d="M24 21.75V5.25C24 4.65326 23.7629 4.08097 23.341 3.65901C22.919 3.23705 22.3467 3 21.75 3H18V0.75C18 0.551088 17.921 0.360322 17.7803 0.21967C17.6397 0.0790176 17.4489 0 17.25 0C17.0511 0 16.8603 0.0790176 16.7197 0.21967C16.579 0.360322 16.5 0.551088 16.5 0.75V3H7.5V0.75C7.5 0.551088 7.42098 0.360322 7.28033 0.21967C7.13968 0.0790176 6.94891 0 6.75 0C6.55109 0 6.36032 0.0790176 6.21967 0.21967C6.07902 0.360322 6 0.551088 6 0.75V3H2.25C1.65326 3 1.08097 3.23705 0.65901 3.65901C0.237053 4.08097 0 4.65326 0 5.25V21.75C0 22.3467 0.237053 22.919 0.65901 23.341C1.08097 23.7629 1.65326 24 2.25 24H21.75C22.3467 24 22.919 23.7629 23.341 23.341C23.7629 22.919 24 22.3467 24 21.75ZM6.09908 19.2372C6.23973 19.0966 6.31875 18.9058 6.31875 18.7069C6.31875 18.508 6.23973 18.3172 6.09908 18.1765C5.95843 18.0359 5.76766 17.9569 5.56875 17.9569H5.02687V14.1881C5.02638 13.8183 4.87925 13.4638 4.61774 13.2023C4.35624 12.9408 4.0017 12.7936 3.63188 12.7931H2.98688C2.78796 12.7931 2.5972 12.8721 2.45654 13.0128C2.31589 13.1534 2.23688 13.3442 2.23688 13.5431C2.23688 13.742 2.31589 13.9328 2.45654 14.0735C2.5972 14.2141 2.78796 14.2931 2.98688 14.2931H3.52687V17.9569H2.98688C2.78796 17.9569 2.5972 18.0359 2.45654 18.1765C2.31589 18.3172 2.23688 18.508 2.23688 18.7069C2.23688 18.9058 2.31589 19.0966 2.45654 19.2372C2.5972 19.3779 2.78796 19.4569 2.98688 19.4569H5.56875C5.76766 19.4569 5.95843 19.3779 6.09908 19.2372ZM1.5 5.25V9H22.5V5.25C22.5 5.05109 22.421 4.86032 22.2803 4.71967C22.1397 4.57902 21.9489 4.5 21.75 4.5H18V6C18 6.19891 17.921 6.38968 17.7803 6.53033C17.6397 6.67098 17.4489 6.75 17.25 6.75C17.0511 6.75 16.8603 6.67098 16.7197 6.53033C16.579 6.38968 16.5 6.19891 16.5 6V4.5H7.5V6C7.5 6.19891 7.42098 6.38968 7.28033 6.53033C7.13968 6.67098 6.94891 6.75 6.75 6.75C6.55109 6.75 6.36032 6.67098 6.21967 6.53033C6.07902 6.38968 6 6.19891 6 6V4.5H2.25C2.05109 4.5 1.86032 4.57902 1.71967 4.71967C1.57902 4.86032 1.5 5.05109 1.5 5.25ZM22.5 10.5V21.75C22.5 21.9489 22.421 22.1397 22.2803 22.2803C22.1397 22.421 21.9489 22.5 21.75 22.5H2.25C2.05109 22.5 1.86032 22.421 1.71967 22.2803C1.57902 22.1397 1.5 21.9489 1.5 21.75V10.5H22.5ZM9.76312 17.9569H9.22312V14.1881C9.22263 13.818 9.07524 13.4632 8.81333 13.2016C8.55142 12.94 8.1964 12.7931 7.82625 12.7931H7.18125C6.98234 12.7931 6.79157 12.8721 6.65092 13.0128C6.51027 13.1534 6.43125 13.3442 6.43125 13.5431C6.43125 13.742 6.51027 13.9328 6.65092 14.0735C6.79157 14.2141 6.98234 14.2931 7.18125 14.2931H7.72312V17.9569H7.18125C6.98234 17.9569 6.79157 18.0359 6.65092 18.1765C6.51027 18.3172 6.43125 18.508 6.43125 18.7069C6.43125 18.9058 6.51027 19.0966 6.65092 19.2372C6.79157 19.3779 6.98234 19.4569 7.18125 19.4569H9.76312C9.96204 19.4569 10.1528 19.3779 10.2935 19.2372C10.4341 19.0966 10.5131 18.9058 10.5131 18.7069C10.5131 18.508 10.4341 18.3172 10.2935 18.1765C10.1528 18.0359 9.96204 17.9569 9.76312 17.9569ZM16.2769 17.9569H16.8187C17.0177 17.9569 17.2084 18.0359 17.3491 18.1765C17.4897 18.3172 17.5687 18.508 17.5687 18.7069C17.5687 18.9058 17.4897 19.0966 17.3491 19.2372C17.2084 19.3779 17.0177 19.4569 16.8187 19.4569H14.2369C14.038 19.4569 13.8472 19.3779 13.7065 19.2372C13.5659 19.0966 13.4869 18.9058 13.4869 18.7069C13.4869 18.508 13.5659 18.3172 13.7065 18.1765C13.8472 18.0359 14.038 17.9569 14.2369 17.9569H14.7769V14.2931H14.2369C14.038 14.2931 13.8472 14.2141 13.7065 14.0735C13.5659 13.9328 13.4869 13.742 13.4869 13.5431C13.4869 13.3442 13.5659 13.1534 13.7065 13.0128C13.8472 12.8721 14.038 12.7931 14.2369 12.7931H14.8819C15.2517 12.7936 15.6062 12.9408 15.8677 13.2023C16.1292 13.4638 16.2764 13.8183 16.2769 14.1881V17.9569ZM21.0131 17.9569H20.4731V14.1881C20.4726 13.818 20.3252 13.4632 20.0633 13.2016C19.8014 12.94 19.4464 12.7931 19.0762 12.7931H18.4313C18.2323 12.7931 18.0416 12.8721 17.9009 13.0128C17.7603 13.1534 17.6813 13.3442 17.6813 13.5431C17.6813 13.742 17.7603 13.9328 17.9009 14.0735C18.0416 14.2141 18.2323 14.2931 18.4313 14.2931H18.9731V17.9569H18.4313C18.2323 17.9569 18.0416 18.0359 17.9009 18.1765C17.7603 18.3172 17.6813 18.508 17.6813 18.7069C17.6813 18.9058 17.7603 19.0966 17.9009 19.2372C18.0416 19.3779 18.2323 19.4569 18.4313 19.4569H21.0131C21.212 19.4569 21.4028 19.3779 21.5435 19.2372C21.6841 19.0966 21.7631 18.9058 21.7631 18.7069C21.7631 18.508 21.6841 18.3172 21.5435 18.1765C21.4028 18.0359 21.212 17.9569 21.0131 17.9569ZM11.5833 18.0833C11.7067 18.0009 11.8517 17.9569 12 17.9569C12.1989 17.9569 12.3897 18.0359 12.5303 18.1765C12.671 18.3172 12.75 18.508 12.75 18.7069C12.75 18.8552 12.706 19.0002 12.6236 19.1236C12.5412 19.2469 12.4241 19.343 12.287 19.3998C12.15 19.4565 11.9992 19.4714 11.8537 19.4425C11.7082 19.4135 11.5746 19.3421 11.4697 19.2372C11.3648 19.1323 11.2933 18.9987 11.2644 18.8532C11.2355 18.7077 11.2503 18.5569 11.3071 18.4199C11.3639 18.2828 11.46 18.1657 11.5833 18.0833Z" fill="black"/>
</svg>
