<svg width="24" height="24" viewBox="0 0 24 24" fill="none" xmlns="http://www.w3.org/2000/svg">
<path fill-rule="evenodd" clip-rule="evenodd" d="M22.32 21.5706C21.7373 21.5727 21.1617 21.4428 20.6364 21.1906C20.111 20.9384 19.6498 20.5705 19.287 20.1144C19.22 20.0272 19.1338 19.9567 19.0352 19.908C18.9366 19.8593 18.8282 19.8339 18.7182 19.8336C18.608 19.8336 18.4991 19.8589 18.4002 19.9076C18.3012 19.9563 18.2148 20.027 18.1476 20.1144C17.9211 20.4093 17.6503 20.6674 17.3448 20.8794C16.7228 21.3076 15.9905 21.5472 15.2358 21.5696C14.481 21.5919 13.7358 21.396 13.0896 21.0054L15.9876 19.6266C16.5743 19.3536 17.1008 18.9663 17.5362 18.4877C17.9717 18.0089 18.3074 17.4483 18.5238 16.8384L18.6786 16.3974C18.7371 16.2183 18.723 16.0236 18.6395 15.8547C18.5559 15.6859 18.4096 15.5565 18.2317 15.4943C18.054 15.4322 17.8589 15.4422 17.6884 15.5221C17.5179 15.6021 17.3855 15.7457 17.3196 15.9222L17.1648 16.3614C17.0104 16.7922 16.7718 17.1879 16.4627 17.5254C16.1536 17.8629 15.7804 18.1355 15.3648 18.327L11.9214 19.965C11.8326 19.9037 11.731 19.8631 11.6244 19.8462L10.4958 17.3262C10.1582 16.5987 9.65078 15.9631 9.0161 15.4728C8.38141 14.9825 7.63816 14.652 6.849 14.5092L6.0696 14.3616L5.652 12.765H10.08C10.5166 12.7678 10.9438 12.6383 11.3053 12.3934C11.6669 12.1486 11.9457 11.7999 12.105 11.3934H15.9372L16.8372 12.9576C17.1612 13.5138 17.6058 14.2752 18.4104 14.6496C18.7332 14.7976 19.0849 14.872 19.44 14.8674C19.9112 14.8613 20.3734 14.7375 20.7846 14.5074C21.4127 14.1436 21.9307 13.6168 22.284 12.9828C22.6931 12.2989 22.9457 11.5331 23.0238 10.74C23.0454 10.5235 23.0508 10.3057 23.04 10.0884C23.0095 9.53375 22.8929 8.98721 22.6944 8.4684L22.68 8.4306C22.4377 7.81149 22.1287 7.22061 21.7584 6.6684C21.3847 6.0865 20.9709 5.53135 20.52 5.007C20.5137 5.00071 20.5083 4.99396 20.5029 4.98722L20.5029 4.98719C20.4975 4.98045 20.4921 4.9737 20.4858 4.9674C19.6908 4.05183 18.7667 3.2569 17.7426 2.6076C16.0917 1.53513 14.1618 0.971763 12.1932 0.987599C11.4732 1.002 11.1132 1.3134 10.9566 1.5744C10.5642 2.1936 10.944 2.8344 11.1366 3.1314L12.5766 5.6046L9.7632 8.58H2.88C2.70728 8.57988 2.53513 8.59982 2.367 8.6394C2.08574 8.7027 1.82028 8.82244 1.58667 8.99137C1.35306 9.16031 1.1562 9.37492 1.008 9.6222C0.86663 9.85448 0.773667 10.1129 0.734693 10.382C0.695718 10.6511 0.711538 10.9254 0.7812 11.1882L2.2212 16.6728C2.32831 17.0597 2.54208 17.4086 2.8381 17.6798C3.1341 17.951 3.50042 18.1335 3.8952 18.2064L6.381 18.669L7.6842 21.5652C7.14095 21.538 6.60989 21.3944 6.12697 21.1441C5.64406 20.8938 5.22058 20.5427 4.8852 20.1144C4.8185 20.0277 4.73293 19.9574 4.635 19.9088C4.53708 19.8601 4.42934 19.8344 4.32 19.8336C4.21004 19.8339 4.10161 19.8593 4.00301 19.908C3.90442 19.9567 3.81828 20.0272 3.7512 20.1144C3.38884 20.5704 2.92783 20.9384 2.40281 21.1906C1.8778 21.4428 1.30245 21.5727 0.72 21.5706C0.529045 21.5706 0.345909 21.6465 0.210883 21.7814C0.0758569 21.9165 0 22.0997 0 22.2906C0 22.4816 0.0758569 22.6647 0.210883 22.7997C0.345909 22.9348 0.529045 23.0106 0.72 23.0106C2.0519 23.0104 3.33576 22.513 4.32 21.6156C4.93094 22.1709 5.66192 22.5777 6.45591 22.804C7.2499 23.0304 8.08546 23.0702 8.8974 22.9206L8.94779 22.9098C9.6745 22.7721 10.3639 22.4825 10.971 22.0602C11.1641 21.9256 11.3476 21.7777 11.52 21.6174C12.4164 22.4296 13.5607 22.9152 14.7676 22.9956C15.9745 23.076 17.1732 22.7463 18.1692 22.0602C18.3639 21.9255 18.5486 21.7769 18.7218 21.6156C19.7061 22.5128 20.9899 23.0102 22.3218 23.0106C22.5128 23.0106 22.6959 22.9348 22.8309 22.7997C22.966 22.6647 23.0418 22.4816 23.0418 22.2906C23.0418 22.0997 22.966 21.9165 22.8309 21.7814C22.6959 21.6465 22.5128 21.5706 22.3218 21.5706H22.32ZM7.56 4.8468C7.56 6.5676 6.1074 7.9662 4.32 7.9662C2.529 7.9662 1.08 6.5658 1.08 4.8468C1.08 3.1278 2.538 1.7274 4.32 1.7274C6.102 1.7274 7.56 3.126 7.56 4.8468ZM6.12 4.8468C6.12 3.9216 5.3118 3.1674 4.32 3.1674C3.3228 3.1674 2.52 3.9198 2.52 4.8468C2.52 5.7738 3.3282 6.5262 4.32 6.5262C5.3118 6.5262 6.12 5.772 6.12 4.8468ZM20.556 7.4586C20.273 7.02096 19.9647 6.60024 19.6326 6.1986H14.58L15.624 7.9986H20.8854C20.7864 7.8276 20.6784 7.6476 20.556 7.4586ZM21.6 10.6086C21.5391 11.1918 21.3498 11.7543 21.0456 12.2556C20.8231 12.6708 20.4922 13.018 20.088 13.26C19.9292 13.3549 19.7509 13.4125 19.5667 13.4284C19.3824 13.4443 19.1969 13.4181 19.0242 13.3518C18.6642 13.1826 18.387 12.7488 18.0918 12.2412L16.4628 9.4368H21.4902C21.5512 9.6725 21.5886 9.91369 21.6018 10.1568C21.6118 10.3072 21.6112 10.4582 21.6 10.6086ZM16.974 3.8262C15.6025 2.94397 14.0126 2.46036 12.3822 2.4294L12.42 2.4762L13.7394 4.7586H18.2214C17.8299 4.41652 17.413 4.10482 16.974 3.8262ZM15.0984 9.9534H12.0996C11.9504 9.5681 11.692 9.23469 11.3562 8.994L13.32 6.906L15.0984 9.9534ZM7.6932 18.0768L9.18 21.36C9.52103 21.2462 9.84413 21.0844 10.1394 20.8794C10.233 20.8128 10.3248 20.7408 10.413 20.667L9.18 17.9238C8.93922 17.4059 8.57736 16.9535 8.12498 16.6048C7.6726 16.2561 7.14297 16.0213 6.5808 15.9204L5.3532 15.6864C5.2197 15.661 5.09611 15.5984 4.99673 15.5056C4.89735 15.4129 4.82624 15.294 4.7916 15.1626L4.02301 12.2232C3.9952 12.1165 3.99228 12.0049 4.01443 11.8969C4.03659 11.789 4.08324 11.6875 4.1508 11.6004C4.21806 11.5136 4.30428 11.4433 4.40287 11.395C4.50145 11.3466 4.6098 11.3215 4.7196 11.3214H10.08C10.1704 11.3296 10.2616 11.319 10.3476 11.29C10.4338 11.2611 10.5129 11.2144 10.5799 11.1533C10.647 11.092 10.7005 11.0175 10.7371 10.9344C10.7738 10.8514 10.7927 10.7615 10.7927 10.6707C10.7927 10.5799 10.7738 10.4901 10.7371 10.407C10.7005 10.3239 10.647 10.2493 10.5799 10.1882C10.5129 10.1269 10.4338 10.0804 10.3476 10.0514C10.2616 10.0224 10.1704 10.0118 10.08 10.02H2.88C2.81929 10.0207 2.75887 10.0285 2.7 10.0434C2.60565 10.0632 2.51625 10.1018 2.43709 10.1569C2.35794 10.2119 2.29065 10.2823 2.2392 10.3638C2.19759 10.4318 2.17023 10.5076 2.15878 10.5865C2.14734 10.6654 2.15203 10.7458 2.1726 10.8228L3.6126 16.3056C3.64997 16.4302 3.72157 16.5419 3.81927 16.6278C3.91697 16.7137 4.03683 16.7704 4.1652 16.7916L6.66 17.265C6.88427 17.3086 7.09494 17.405 7.27459 17.5462C7.45425 17.6873 7.59774 17.8692 7.6932 18.0768Z" fill="black"/>
</svg>
