<svg width="24" height="24" viewBox="0 0 24 24" fill="none" xmlns="http://www.w3.org/2000/svg">
<path d="M20.625 20.25C20.4844 20.3903 20.2939 20.469 20.0953 20.469C19.8967 20.469 19.7062 20.3903 19.5656 20.25L4.89935 5.58564V18.8006C4.89935 18.9995 4.82034 19.1903 4.67968 19.331C4.53903 19.4716 4.34827 19.5506 4.14935 19.5506C3.95044 19.5506 3.75968 19.4716 3.61902 19.331C3.47837 19.1903 3.39935 18.9995 3.39935 18.8006V3.77439C3.3997 3.72527 3.40473 3.6763 3.41435 3.62814C3.41435 3.60564 3.42748 3.58501 3.4331 3.56439C3.43952 3.53825 3.44766 3.51257 3.45748 3.48751C3.4685 3.46301 3.48102 3.43922 3.49498 3.41626C3.50623 3.39751 3.51373 3.37689 3.52685 3.35814C3.55423 3.31751 3.58496 3.27925 3.61873 3.24376C3.65317 3.20957 3.69084 3.1788 3.73123 3.15189C3.75059 3.13953 3.77062 3.12826 3.79123 3.11814C3.81373 3.10689 3.83623 3.09189 3.8606 3.08251C3.88502 3.0727 3.91008 3.06455 3.9356 3.05814L4.00123 3.03939C4.04629 3.03038 4.09215 3.02598 4.1381 3.02626H19.1737C19.3726 3.02626 19.5634 3.10528 19.7041 3.24593C19.8447 3.38658 19.9237 3.57735 19.9237 3.77626C19.9237 3.97517 19.8447 4.16594 19.7041 4.30659C19.5634 4.44724 19.3726 4.52626 19.1737 4.52626H5.9606L20.625 19.1831C20.6956 19.2529 20.7516 19.3359 20.7898 19.4275C20.8281 19.5191 20.8478 19.6173 20.8478 19.7166C20.8478 19.8158 20.8281 19.914 20.7898 20.0056C20.7516 20.0972 20.6956 20.1802 20.625 20.25Z" fill="black"/>
</svg>
