<svg width="24" height="24" viewBox="0 0 24 24" fill="none" xmlns="http://www.w3.org/2000/svg">
<path d="M6 14.55C5.99681 14.4481 6.0147 14.3467 6.05256 14.252C6.09042 14.1574 6.14742 14.0716 6.22 14L11.22 9.00001C11.3236 8.9007 11.4459 8.82302 11.5798 8.77151C11.7137 8.72 11.8566 8.6957 12 8.70001C12.1447 8.69944 12.288 8.72741 12.4219 8.78232C12.5557 8.83723 12.6774 8.918 12.78 9.02001L17.78 14.02C17.9204 14.1606 17.9993 14.3513 17.9993 14.55C17.9993 14.7488 17.9204 14.9394 17.78 15.08C17.7111 15.1508 17.6286 15.207 17.5376 15.2454C17.4466 15.2838 17.3488 15.3036 17.25 15.3036C17.1512 15.3036 17.0534 15.2838 16.9624 15.2454C16.8714 15.207 16.7889 15.1508 16.72 15.08L12 10.36L7.28 15.08C7.21105 15.1508 7.12863 15.207 7.03761 15.2454C6.94658 15.2838 6.84879 15.3036 6.75 15.3036C6.6512 15.3036 6.55341 15.2838 6.46238 15.2454C6.37136 15.207 6.28894 15.1508 6.22 15.08C6.14942 15.0111 6.09355 14.9286 6.05573 14.8375C6.01792 14.7464 5.99896 14.6486 6 14.55Z" fill="black"/>
</svg>
