<svg width="24" height="24" viewBox="0 0 24 24" fill="none" xmlns="http://www.w3.org/2000/svg">
<path d="M14.55 18C14.4514 18.0005 14.3538 17.9813 14.2628 17.9435C14.1718 17.9057 14.0892 17.8501 14.02 17.78L9.01999 12.78C8.91707 12.6781 8.8357 12.5565 8.78073 12.4225C8.72576 12.2885 8.6983 12.1448 8.69999 12C8.69348 11.7107 8.80127 11.4304 8.99999 11.22L14 6.22001C14.1406 6.07956 14.3312 6.00067 14.53 6.00067C14.7287 6.00067 14.9194 6.07956 15.06 6.22001C15.1307 6.28896 15.187 6.37137 15.2254 6.4624C15.2638 6.55343 15.2836 6.65122 15.2836 6.75001C15.2836 6.8488 15.2638 6.9466 15.2254 7.03762C15.187 7.12865 15.1307 7.21107 15.06 7.28001L10.36 12L15.08 16.72C15.1507 16.789 15.207 16.8714 15.2454 16.9624C15.2838 17.0534 15.3036 17.1512 15.3036 17.25C15.3036 17.3488 15.2838 17.4466 15.2454 17.5376C15.207 17.6287 15.1507 17.7111 15.08 17.78C15.0111 17.8506 14.9286 17.9065 14.8375 17.9443C14.7464 17.9821 14.6486 18.001 14.55 18Z" fill="black"/>
</svg>
