<svg width="24" height="24" viewBox="0 0 24 24" fill="none" xmlns="http://www.w3.org/2000/svg">
<path fill-rule="evenodd" clip-rule="evenodd" d="M8.25 12.4181H1.5V10.9181C1.5 10.3214 1.73705 9.74909 2.15901 9.32713C2.58097 8.90518 3.15326 8.66812 3.75 8.66812H18C18.1989 8.66812 18.3897 8.58911 18.5303 8.44845C18.671 8.3078 18.75 8.11704 18.75 7.91812V2.66812C18.75 2.07139 18.5129 1.49909 18.091 1.07713C17.669 0.655174 17.0967 0.418121 16.5 0.418121H4.5C3.90326 0.418121 3.33097 0.655174 2.90901 1.07713C2.48705 1.49909 2.25 2.07139 2.25 2.66812V7.48312C1.58155 7.77486 1.01268 8.25518 0.613054 8.86529C0.213423 9.47539 0.000375751 10.1888 0 10.9181V16.1681C0 16.367 0.0790176 16.5578 0.21967 16.6985C0.360322 16.8391 0.551088 16.9181 0.75 16.9181C0.948912 16.9181 1.13968 16.8391 1.28033 16.6985C1.42098 16.5578 1.5 16.367 1.5 16.1681V13.9181H8.25C8.44891 13.9181 8.63968 13.8391 8.78033 13.6985C8.92098 13.5578 9 13.367 9 13.1681C9 12.9692 8.92098 12.7784 8.78033 12.6378C8.63968 12.4971 8.44891 12.4181 8.25 12.4181ZM8.25 7.16812V5.9175C8.25049 5.85151 8.27692 5.78837 8.32358 5.74171C8.37024 5.69505 8.43339 5.66861 8.49938 5.66812H12.5006C12.5666 5.66861 12.6298 5.69505 12.6764 5.74171C12.7231 5.78837 12.7495 5.85151 12.75 5.9175V7.16812H8.25ZM3.96967 2.13779C3.82902 2.27845 3.75 2.46921 3.75 2.66812V7.16812H6.75V5.9175C6.75099 5.45384 6.93562 5.00946 7.26347 4.6816C7.59133 4.35374 8.03572 4.16912 8.49938 4.16812H12.5006C12.9643 4.16912 13.4087 4.35374 13.7365 4.6816C14.0644 5.00946 14.249 5.45384 14.25 5.9175V7.16812H17.25V2.66812C17.25 2.46921 17.171 2.27845 17.0303 2.13779C16.8897 1.99714 16.6989 1.91812 16.5 1.91812H4.5C4.30109 1.91812 4.11032 1.99714 3.96967 2.13779ZM17.2931 10.1681C15.9666 10.1681 14.6699 10.5615 13.567 11.2984C12.464 12.0354 11.6044 13.0829 11.0968 14.3084C10.5892 15.5339 10.4563 16.8824 10.7151 18.1834C10.9739 19.4844 11.6127 20.6795 12.5506 21.6175C13.4886 22.5554 14.6837 23.1942 15.9847 23.453C17.2857 23.7118 18.6342 23.579 19.8597 23.0713C21.0853 22.5637 22.1327 21.7041 22.8697 20.6011C23.6066 19.4982 24 18.2015 24 16.875C23.9975 15.097 23.2901 13.3925 22.0329 12.1353C20.7756 10.878 19.0711 10.1706 17.2931 10.1681ZM14.4003 21.2044C15.2566 21.7765 16.2633 22.0819 17.2931 22.0819C18.6736 22.0804 19.9971 21.5313 20.9733 20.5552C21.9495 19.579 22.4985 18.2555 22.5 16.875C22.5 15.8452 22.1946 14.8385 21.6225 13.9822C21.0503 13.1259 20.2371 12.4586 19.2857 12.0645C18.3343 11.6704 17.2873 11.5673 16.2773 11.7682C15.2673 11.9691 14.3395 12.465 13.6113 13.1932C12.8831 13.9214 12.3872 14.8492 12.1863 15.8592C11.9854 16.8692 12.0885 17.9161 12.4826 18.8676C12.8767 19.819 13.5441 20.6322 14.4003 21.2044ZM19.905 15.75C19.905 16.4439 19.6302 17.1096 19.1408 17.6015C18.6514 18.0934 17.987 18.3715 17.2931 18.375C17.0942 18.375 16.9034 18.296 16.7628 18.1553C16.6221 18.0147 16.5431 17.8239 16.5431 17.625C16.5431 17.4261 16.6221 17.2353 16.7628 17.0947C16.9034 16.954 17.0942 16.875 17.2931 16.875C17.5125 16.875 17.7269 16.8101 17.9095 16.6885C18.092 16.5669 18.2345 16.394 18.319 16.1916C18.4036 15.9892 18.4263 15.7663 18.3845 15.551C18.3426 15.3357 18.238 15.1375 18.0839 14.9815C17.9297 14.8255 17.7328 14.7186 17.518 14.6742C17.3032 14.6299 17.08 14.65 16.8766 14.7322C16.6733 14.8143 16.4987 14.9548 16.375 15.1359C16.2512 15.317 16.1838 15.5307 16.1813 15.75C16.1813 15.9489 16.1022 16.1397 15.9616 16.2803C15.8209 16.421 15.6302 16.5 15.4313 16.5C15.2323 16.5 15.0416 16.421 14.9009 16.2803C14.7603 16.1397 14.6813 15.9489 14.6813 15.75C14.6813 15.0573 14.9564 14.3929 15.4463 13.9031C15.9361 13.4133 16.6004 13.1381 17.2931 13.1381C17.9858 13.1381 18.6502 13.4133 19.14 13.9031C19.6298 14.3929 19.905 15.0573 19.905 15.75ZM16.6681 19.2921C16.8531 19.1685 17.0706 19.1025 17.2931 19.1025C17.5915 19.1025 17.8776 19.221 18.0886 19.432C18.2996 19.643 18.4181 19.9291 18.4181 20.2275C18.4181 20.45 18.3521 20.6675 18.2285 20.8525C18.1049 21.0375 17.9292 21.1817 17.7236 21.2669C17.5181 21.352 17.2919 21.3743 17.0736 21.3309C16.8554 21.2875 16.655 21.1803 16.4976 21.023C16.3403 20.8657 16.2332 20.6652 16.1897 20.447C16.1463 20.2287 16.1686 20.0025 16.2538 19.797C16.3389 19.5914 16.4831 19.4157 16.6681 19.2921Z" fill="black"/>
</svg>
