<svg width="24" height="24" viewBox="0 0 24 24" fill="none" xmlns="http://www.w3.org/2000/svg">
<path fill-rule="evenodd" clip-rule="evenodd" d="M22.7197 3.96967C22.8603 3.82902 23.0511 3.75 23.25 3.75C23.4489 3.75 23.6397 3.82902 23.7803 3.96967C23.921 4.11032 24 4.30109 24 4.5V23.25C24 23.4489 23.921 23.6397 23.7803 23.7803C23.6397 23.921 23.4489 24 23.25 24C23.0511 24 22.8603 23.921 22.7197 23.7803C22.579 23.6397 22.5 23.4489 22.5 23.25V21.75H1.5V23.25C1.5 23.4489 1.42098 23.6397 1.28033 23.7803C1.13968 23.921 0.948912 24 0.75 24C0.551088 24 0.360322 23.921 0.21967 23.7803C0.0790176 23.6397 0 23.4489 0 23.25V0.75C0 0.551088 0.0790176 0.360322 0.21967 0.21967C0.360322 0.0790176 0.551088 0 0.75 0C0.948912 0 1.13968 0.0790176 1.28033 0.21967C1.42098 0.360322 1.5 0.551088 1.5 0.75V9.75H22.5V4.5C22.5 4.30109 22.579 4.11032 22.7197 3.96967ZM1.5 11.25V20.25H22.5V11.25H1.5ZM9 15.75C9 16.3433 8.82405 16.9234 8.49441 17.4167C8.16476 17.9101 7.69623 18.2946 7.14805 18.5216C6.59987 18.7487 5.99667 18.8081 5.41473 18.6924C4.83279 18.5766 4.29824 18.2909 3.87868 17.8713C3.45912 17.4518 3.1734 16.9172 3.05764 16.3353C2.94189 15.7533 3.0013 15.1501 3.22836 14.602C3.45542 14.0538 3.83994 13.5852 4.33329 13.2556C4.82664 12.9259 5.40666 12.75 6 12.75C6.79565 12.75 7.55871 13.0661 8.12132 13.6287C8.68393 14.1913 9 14.9544 9 15.75ZM20.7803 18.5303C20.921 18.3897 21 18.1989 21 18C21.0021 17.1892 20.7322 16.401 20.2336 15.7617C19.7349 15.1223 19.0363 14.6686 18.2494 14.4731L12.3638 13.005C12.1426 12.9497 11.9118 12.9456 11.6888 12.9929C11.4659 13.0401 11.2566 13.1376 11.0769 13.2779C10.8973 13.4181 10.752 13.5975 10.652 13.8023C10.552 14.0072 10.5 14.2321 10.5 14.46V18C10.5 18.1989 10.579 18.3897 10.7197 18.5303C10.8603 18.671 11.0511 18.75 11.25 18.75H20.25C20.4489 18.75 20.6397 18.671 20.7803 18.5303ZM6 8.25C6.59334 8.25 7.17336 8.07405 7.66671 7.74441C8.16006 7.41476 8.54458 6.94623 8.77164 6.39805C8.9987 5.84987 9.05811 5.24667 8.94236 4.66473C8.8266 4.08279 8.54088 3.54824 8.12132 3.12868C7.70176 2.70912 7.16721 2.4234 6.58527 2.30764C6.00333 2.19189 5.40013 2.2513 4.85195 2.47836C4.30377 2.70542 3.83524 3.08994 3.50559 3.58329C3.17595 4.07664 3 4.65666 3 5.25C3 6.04565 3.31607 6.80871 3.87868 7.37132C4.44129 7.93393 5.20435 8.25 6 8.25ZM6.83336 4.0028C6.58668 3.83797 6.29667 3.75 6 3.75C5.60218 3.75 5.22064 3.90804 4.93934 4.18934C4.65804 4.47064 4.5 4.85218 4.5 5.25C4.5 5.54667 4.58797 5.83668 4.7528 6.08336C4.91762 6.33003 5.15189 6.52229 5.42597 6.63582C5.70006 6.74935 6.00166 6.77906 6.29264 6.72118C6.58361 6.6633 6.85088 6.52044 7.06066 6.31066C7.27044 6.10088 7.4133 5.83361 7.47118 5.54264C7.52906 5.25166 7.49935 4.95006 7.38582 4.67597C7.27229 4.40189 7.08003 4.16762 6.83336 4.0028ZM11.25 8.25H20.25C20.4489 8.25 20.6397 8.17098 20.7803 8.03033C20.921 7.88968 21 7.69891 21 7.5C21.0021 6.68917 20.7322 5.90105 20.2336 5.26167C19.7349 4.62229 19.0363 4.1686 18.2494 3.97313L12.3638 2.505C12.2448 2.47506 12.1226 2.45994 12 2.46C11.6022 2.46 11.2206 2.61804 10.9393 2.89934C10.658 3.18064 10.5 3.56218 10.5 3.96V7.5C10.5 7.69891 10.579 7.88968 10.7197 8.03033C10.8603 8.17098 11.0511 8.25 11.25 8.25ZM17.8856 5.4375L12 3.96V6.75H19.365C19.2431 6.42783 19.0447 6.14008 18.787 5.91146C18.5294 5.68285 18.22 5.5202 17.8856 5.4375Z" fill="black"/>
</svg>
