<svg width="24" height="24" viewBox="0 0 24 24" fill="none" xmlns="http://www.w3.org/2000/svg">
<path fill-rule="evenodd" clip-rule="evenodd" d="M6.21967 6.53033C6.07902 6.38968 6 6.19891 6 6V4.5H2.25C2.05109 4.5 1.86032 4.57902 1.71967 4.71967C1.57902 4.86032 1.5 5.05109 1.5 5.25V9H22.5V5.25C22.5 5.05109 22.421 4.86032 22.2803 4.71967C22.1397 4.57902 21.9489 4.5 21.75 4.5H18V6C18 6.19891 17.921 6.38968 17.7803 6.53033C17.6397 6.67098 17.4489 6.75 17.25 6.75C17.0511 6.75 16.8603 6.67098 16.7197 6.53033C16.579 6.38968 16.5 6.19891 16.5 6V4.5H7.5V6C7.5 6.19891 7.42098 6.38968 7.28033 6.53033C7.13968 6.67098 6.94891 6.75 6.75 6.75C6.55109 6.75 6.36032 6.67098 6.21967 6.53033ZM16.5 3H7.5V0.75C7.5 0.551088 7.42098 0.360322 7.28033 0.21967C7.13968 0.0790176 6.94891 0 6.75 0C6.55109 0 6.36032 0.0790176 6.21967 0.21967C6.07902 0.360322 6 0.551088 6 0.75V3H2.25C1.65326 3 1.08097 3.23705 0.65901 3.65901C0.237053 4.08097 0 4.65326 0 5.25V9.75V21.75C0 22.3467 0.237053 22.919 0.65901 23.341C1.08097 23.7629 1.65326 24 2.25 24H21.75C22.3467 24 22.919 23.7629 23.341 23.341C23.7629 22.919 24 22.3467 24 21.75V9.75V5.25C24 4.65326 23.7629 4.08097 23.341 3.65901C22.919 3.23705 22.3467 3 21.75 3H18V0.75C18 0.551088 17.921 0.360322 17.7803 0.21967C17.6397 0.0790176 17.4489 0 17.25 0C17.0511 0 16.8603 0.0790176 16.7197 0.21967C16.579 0.360322 16.5 0.551088 16.5 0.75V3ZM1.5 10.5V21.75C1.5 21.9489 1.57902 22.1397 1.71967 22.2803C1.86032 22.421 2.05109 22.5 2.25 22.5H21.75C21.9489 22.5 22.1397 22.421 22.2803 22.2803C22.421 22.1397 22.5 21.9489 22.5 21.75V10.5H1.5ZM11.8125 18V13.5H11.0625C10.8636 13.5 10.6728 13.421 10.5322 13.2803C10.3915 13.1397 10.3125 12.9489 10.3125 12.75C10.3125 12.5511 10.3915 12.3603 10.5322 12.2197C10.6728 12.079 10.8636 12 11.0625 12H11.8125C12.2103 12 12.5919 12.158 12.8732 12.4393C13.1545 12.7206 13.3125 13.1022 13.3125 13.5V18H14.0625C14.2614 18 14.4522 18.079 14.5928 18.2197C14.7335 18.3603 14.8125 18.5511 14.8125 18.75C14.8125 18.9489 14.7335 19.1397 14.5928 19.2803C14.4522 19.421 14.2614 19.5 14.0625 19.5H11.0625C10.8636 19.5 10.6728 19.421 10.5322 19.2803C10.3915 19.1397 10.3125 18.9489 10.3125 18.75C10.3125 18.5511 10.3915 18.3603 10.5322 18.2197C10.6728 18.079 10.8636 18 11.0625 18H11.8125Z" fill="black"/>
</svg>
