<svg width="24" height="24" viewBox="0 0 24 24" fill="none" xmlns="http://www.w3.org/2000/svg">
<path d="M20.8744 12.4163C20.8856 12.3975 20.895 12.3788 20.9044 12.36C20.9137 12.3413 20.9325 12.3131 20.9437 12.2869C20.955 12.2606 20.9587 12.2363 20.9662 12.21C20.9736 12.1891 20.9799 12.1678 20.985 12.1463C21.0038 12.0497 21.0038 11.9503 20.985 11.8538C20.9799 11.8322 20.9736 11.8109 20.9662 11.79C20.9662 11.7638 20.9531 11.7375 20.9437 11.7131C20.9344 11.6888 20.9175 11.6644 20.9044 11.64C20.8912 11.6156 20.8856 11.6025 20.8744 11.5838C20.8462 11.5432 20.8149 11.5049 20.7806 11.4694L16.2806 6.96938C16.1399 6.82865 15.949 6.74958 15.75 6.74958C15.551 6.74958 15.3601 6.82865 15.2194 6.96938C15.0786 7.11011 14.9996 7.30098 14.9996 7.5C14.9996 7.69902 15.0786 7.8899 15.2194 8.03063L18.4387 11.25H8.25C8.05109 11.25 7.86032 11.329 7.71967 11.4697C7.57902 11.6103 7.5 11.8011 7.5 12C7.5 12.1989 7.57902 12.3897 7.71967 12.5303C7.86032 12.671 8.05109 12.75 8.25 12.75H18.4387L15.2194 15.9694C15.0786 16.1101 14.9996 16.301 14.9996 16.5C14.9996 16.699 15.0786 16.8899 15.2194 17.0306C15.3601 17.1714 15.551 17.2504 15.75 17.2504C15.949 17.2504 16.1399 17.1714 16.2806 17.0306L20.7806 12.5306C20.8149 12.4951 20.8462 12.4568 20.8744 12.4163Z" fill="black"/>
<path d="M8.25 22.5H6.75C6.15326 22.5 5.58097 22.2629 5.15901 21.841C4.73705 21.419 4.5 20.8467 4.5 20.25V3.75C4.5 3.15326 4.73705 2.58097 5.15901 2.15901C5.58097 1.73705 6.15326 1.5 6.75 1.5H8.25C8.44891 1.5 8.63968 1.42098 8.78033 1.28033C8.92098 1.13968 9 0.948912 9 0.75C9 0.551088 8.92098 0.360322 8.78033 0.21967C8.63968 0.0790175 8.44891 -5e-08 8.25 -5e-08H6.75C5.75544 -5e-08 4.80161 0.395088 4.09835 1.09835C3.39509 1.80161 3 2.75544 3 3.75V20.25C3 21.2446 3.39509 22.1984 4.09835 22.9017C4.80161 23.6049 5.75544 24 6.75 24H8.25C8.44891 24 8.63968 23.921 8.78033 23.7803C8.92098 23.6397 9 23.4489 9 23.25C9 23.0511 8.92098 22.8603 8.78033 22.7197C8.63968 22.579 8.44891 22.5 8.25 22.5Z" fill="black"/>
</svg>
