<svg width="24" height="24" viewBox="0 0 24 24" fill="none" xmlns="http://www.w3.org/2000/svg">
<path d="M22.3894 16.0313C22.2159 15.9365 22.012 15.914 21.822 15.9688C21.6321 16.0236 21.4714 16.1511 21.375 16.3238C21.202 16.6549 20.9522 16.9399 20.6466 17.1549C20.3409 17.3698 19.9883 17.5085 19.6181 17.5594C20.0459 16.6556 20.2675 15.668 20.2669 14.6681C20.2669 14.4692 20.1879 14.2784 20.0472 14.1378C19.9066 13.9971 19.7158 13.9181 19.5169 13.9181C19.318 13.9181 19.1272 13.9971 18.9866 14.1378C18.8459 14.2784 18.7669 14.4692 18.7669 14.6681C18.767 15.4197 18.6063 16.1626 18.2955 16.847C17.9847 17.5313 17.5311 18.1412 16.965 18.6356C16.0031 18.1819 15.54 17.2781 15.585 16.5469C15.5914 16.4482 15.5781 16.3492 15.5461 16.2557C15.514 16.1621 15.4638 16.0758 15.3983 16.0018C15.3328 15.9277 15.2532 15.8673 15.1643 15.8241C15.0753 15.7809 14.9787 15.7557 14.88 15.75C14.6816 15.7377 14.4865 15.8046 14.3374 15.9361C14.1883 16.0676 14.0976 16.2529 14.085 16.4513C14.0636 17.0436 14.1853 17.6324 14.4399 18.1677C14.6945 18.703 15.0745 19.1691 15.5475 19.5263C14.8953 19.8036 14.1938 19.9465 13.485 19.9463H12.8288C12.5461 17.4164 12.3946 14.8736 12.375 12.3281C12.4256 12.3281 12.4763 12.3281 12.5269 12.3281C12.8944 12.3266 13.2605 12.2832 13.6181 12.1988C13.9635 12.6652 14.4143 13.0432 14.9338 13.302C15.4532 13.5607 16.0266 13.6928 16.6069 13.6875C17.1199 13.6866 17.6284 13.5912 18.1069 13.4063C18.1992 13.3709 18.2837 13.3177 18.3555 13.2498C18.4273 13.1818 18.485 13.1003 18.5253 13.0101C18.5656 12.9198 18.5877 12.8224 18.5904 12.7236C18.5931 12.6248 18.5763 12.5264 18.541 12.4341C18.5056 12.3417 18.4524 12.2573 18.3845 12.1855C18.3165 12.1137 18.235 12.056 18.1448 12.0157C18.0545 11.9754 17.9571 11.9532 17.8583 11.9506C17.7595 11.9479 17.6611 11.9647 17.5688 12C17.1677 12.1651 16.7295 12.2188 16.3005 12.1555C15.8714 12.0921 15.4675 11.914 15.1313 11.64C15.8478 11.2631 16.5091 10.7893 17.0963 10.2319C17.1418 10.2714 17.1922 10.3048 17.2463 10.3312C17.7149 10.5537 18.2275 10.6678 18.7463 10.665C19.3219 10.6597 19.8892 10.5273 20.4078 10.2774C20.9264 10.0275 21.3834 9.66625 21.7463 9.21937C21.8135 9.14479 21.8652 9.05746 21.898 8.96255C21.9309 8.86765 21.9444 8.7671 21.9377 8.66688C21.931 8.56667 21.9042 8.46882 21.859 8.37915C21.8137 8.28947 21.7509 8.2098 21.6743 8.14486C21.5977 8.07992 21.5088 8.03103 21.4129 8.00109C21.317 7.97116 21.2161 7.96079 21.1161 7.97059C21.0162 7.9804 20.9192 8.01018 20.831 8.05818C20.7427 8.10618 20.6651 8.17141 20.6025 8.25C19.875 9.105 18.8625 9.30375 18.1331 9.07687C18.8129 8.21983 19.2927 7.22179 19.5375 6.15562C19.5694 5.96362 19.5254 5.76674 19.4149 5.60657C19.3043 5.4464 19.1358 5.33549 18.9449 5.29727C18.7541 5.25905 18.5559 5.29652 18.3921 5.40176C18.2284 5.507 18.112 5.67177 18.0675 5.86125C17.6044 8.1675 14.6925 10.9387 12.39 10.8244C12.4163 9.90187 12.4763 9.03375 12.5588 8.22562C13.8338 8.14125 15.3169 7.28812 15.9019 5.475C15.9631 5.28554 15.9465 5.07953 15.8557 4.90231C15.765 4.72509 15.6076 4.59117 15.4181 4.53C15.2287 4.46883 15.0227 4.48544 14.8455 4.57616C14.6682 4.66688 14.5343 4.82429 14.4731 5.01375C14.3571 5.41937 14.137 5.78762 13.8348 6.08198C13.5325 6.37633 13.1586 6.58658 12.75 6.69187C13.2769 3.12937 14.1713 1.08562 14.1844 1.06687C14.2659 0.885371 14.2721 0.6789 14.2014 0.492887C14.1307 0.306875 13.989 0.156557 13.8075 0.0750029C13.626 -0.00655118 13.4195 -0.0126614 13.2335 0.0580164C13.0475 0.128694 12.8972 0.270371 12.8156 0.451878C12.3435 1.60393 11.9764 2.79627 11.7188 4.01437C10.7813 3.59437 10.3031 2.7375 10.3125 2.02312C10.314 1.92463 10.2961 1.82681 10.2598 1.73524C10.2234 1.64368 10.1694 1.56017 10.1008 1.48947C10.0322 1.41878 9.95037 1.3623 9.85993 1.32325C9.7695 1.2842 9.67226 1.26334 9.57376 1.26187H9.56251C9.36554 1.26185 9.17646 1.33932 9.03612 1.47755C8.89579 1.61578 8.81547 1.80367 8.81251 2.00062C8.79376 3.2775 9.60564 4.87125 11.4188 5.50687C11.1737 6.90476 11.0122 8.31602 10.935 9.73312C7.41001 9.39375 5.90439 4.4175 5.64564 2.60812C5.63395 2.40921 5.54373 2.22309 5.39481 2.0907C5.2459 1.95831 5.05049 1.8905 4.85158 1.90219C4.65266 1.91387 4.46654 2.0041 4.33415 2.15301C4.20176 2.30193 4.13395 2.49734 4.14564 2.69625C4.14285 2.73057 4.14285 2.76506 4.14564 2.79937C4.26254 3.54859 4.44384 4.28632 4.68751 5.00437C3.58501 5.07187 2.70751 4.48687 2.37189 3.79687C2.33062 3.70543 2.27142 3.6232 2.1978 3.55505C2.12417 3.4869 2.03763 3.43421 1.94328 3.4001C1.84893 3.366 1.7487 3.35116 1.64852 3.35649C1.54834 3.36181 1.45024 3.38717 1.36004 3.43108C1.26983 3.47499 1.18936 3.53655 1.12337 3.61212C1.05738 3.68769 1.00723 3.77573 0.975872 3.87103C0.944517 3.96632 0.9326 4.06694 0.940826 4.16693C0.949053 4.26691 0.977255 4.36423 1.02376 4.45312C1.35398 5.08625 1.85427 5.6147 2.46839 5.97906C3.0825 6.34342 3.78608 6.52924 4.50001 6.51562C4.75146 6.51412 5.00234 6.49154 5.25001 6.44812C5.55429 7.13227 5.92415 7.78532 6.35439 8.39812C5.37564 9.0225 4.29189 8.87062 3.69001 8.37375C3.53631 8.25413 3.34211 8.199 3.14848 8.22001C2.95486 8.24102 2.777 8.33653 2.65254 8.48633C2.52807 8.63613 2.46675 8.82847 2.48156 9.02267C2.49637 9.21686 2.58615 9.39768 2.73189 9.52687C3.37787 10.0438 4.18274 10.3213 5.01001 10.3125C5.84552 10.3061 6.65799 10.0379 7.33314 9.54562C8.27412 10.5122 9.53114 11.1084 10.875 11.2256C10.875 11.4412 10.875 11.6625 10.875 11.8837C10.875 13.8094 10.9519 15.585 11.0625 17.1338C10.2162 17.3616 9.31897 17.3117 8.50314 16.9913C9.27751 15.93 9.59064 14.205 8.55751 12.5381C8.45259 12.3691 8.28479 12.2486 8.09105 12.2032C7.8973 12.1579 7.69347 12.1913 7.52439 12.2963C7.35531 12.4012 7.23485 12.569 7.18948 12.7627C7.14412 12.9565 7.17759 13.1603 7.28251 13.3294C7.94814 14.4037 7.75689 15.5606 7.21876 16.2038C6.28126 15.3975 5.53126 14.1788 5.08689 12.7219C5.08335 12.7091 5.07897 12.6966 5.07376 12.6844C5.03587 12.5812 4.97642 12.4872 4.89939 12.4088C4.78009 12.2887 4.62369 12.2126 4.45563 12.1927C4.28756 12.1728 4.11771 12.2103 3.97367 12.2991C3.82964 12.388 3.71989 12.523 3.66226 12.6821C3.60464 12.8412 3.60252 13.0151 3.65626 13.1756C3.89615 13.9705 4.23373 14.7326 4.66126 15.4444C3.73314 15.9488 2.73189 15.8194 2.13939 15.375C1.98051 15.2552 1.78053 15.2033 1.58344 15.2309C1.38635 15.2585 1.2083 15.3633 1.08845 15.5222C0.968607 15.6811 0.916787 15.8811 0.94439 16.0781C0.971993 16.2752 1.07676 16.4533 1.23564 16.5731C1.87515 17.0358 2.64571 17.2821 3.43501 17.2763C4.18404 17.2717 4.91703 17.0588 5.55189 16.6613C5.87185 17.0242 6.22878 17.3529 6.61689 17.6419C7.06549 17.9745 7.5592 18.2416 8.08314 18.435C7.82934 18.716 7.50755 18.9271 7.14867 19.0479C6.78978 19.1688 6.40586 19.1953 6.03376 19.125C5.84057 19.0773 5.63633 19.1082 5.46596 19.2111C5.2956 19.3139 5.17307 19.4802 5.12533 19.6734C5.07759 19.8666 5.10855 20.0709 5.2114 20.2412C5.31425 20.4116 5.48057 20.5341 5.67376 20.5819C5.92913 20.6437 6.19102 20.6746 6.45376 20.6738C7.11539 20.6662 7.76379 20.4874 8.33584 20.1549C8.90789 19.8224 9.38411 19.3474 9.71814 18.7763C9.80064 18.7763 9.88314 18.7763 9.96564 18.7763C10.3753 18.7738 10.7836 18.7298 11.1844 18.645C11.4413 21.4706 11.7694 23.265 11.7919 23.3869C11.8238 23.559 11.915 23.7145 12.0496 23.8265C12.1842 23.9385 12.3537 23.9999 12.5288 24C12.5747 24.0002 12.6206 23.9958 12.6656 23.9869C12.861 23.9504 13.0339 23.838 13.1464 23.6741C13.2589 23.5103 13.3018 23.3085 13.2656 23.1131C13.2656 23.0963 13.1531 22.4944 13.0125 21.4481H13.4831C13.9161 21.448 14.3481 21.4066 14.7731 21.3244C15.1277 21.754 15.5735 22.0993 16.0781 22.335C16.5828 22.5708 17.1336 22.6912 17.6906 22.6875C18.1138 22.6866 18.5346 22.6234 18.9394 22.5C19.036 22.4735 19.1264 22.4278 19.2051 22.3657C19.2838 22.3037 19.3493 22.2265 19.3976 22.1387C19.446 22.0509 19.4763 21.9543 19.4867 21.8546C19.4971 21.7549 19.4874 21.6542 19.4582 21.5583C19.429 21.4624 19.3809 21.3733 19.3166 21.2964C19.2524 21.2194 19.1735 21.1561 19.0844 21.1102C18.9953 21.0642 18.8979 21.0366 18.798 21.029C18.698 21.0213 18.5976 21.0338 18.5025 21.0656C18.152 21.1808 17.7802 21.2162 17.4142 21.1691C17.0483 21.1221 16.6975 20.9938 16.3875 20.7938C17.2783 20.3681 18.0663 19.7547 18.6975 18.9956C18.927 19.0474 19.1616 19.0732 19.3969 19.0725C20.0771 19.0657 20.7427 18.8741 21.3224 18.518C21.902 18.162 22.3739 17.6549 22.6875 17.0513C22.7351 16.9647 22.7651 16.8697 22.7759 16.7716C22.7867 16.6734 22.778 16.5741 22.7503 16.4793C22.7226 16.3846 22.6764 16.2962 22.6145 16.2193C22.5526 16.1424 22.4761 16.0785 22.3894 16.0313Z" fill="black"/>
</svg>
