<svg width="24" height="24" viewBox="0 0 24 24" fill="none" xmlns="http://www.w3.org/2000/svg">
<path fill-rule="evenodd" clip-rule="evenodd" d="M5.25 0H21.75C22.3467 0 22.919 0.237053 23.341 0.65901C23.7629 1.08097 24 1.65326 24 2.25V13.5C24 13.6989 23.921 13.8897 23.7803 14.0303C23.6397 14.171 23.4489 14.25 23.25 14.25C23.0511 14.25 22.8603 14.171 22.7197 14.0303C22.579 13.8897 22.5 13.6989 22.5 13.5V6H4.5C4.5 6.19891 4.42098 6.38968 4.28033 6.53033C4.13968 6.67098 3.94891 6.75 3.75 6.75C3.55109 6.75 3.36032 6.67098 3.21967 6.53033C3.07902 6.38968 3 6.19891 3 6V2.25C3 1.65326 3.23705 1.08097 3.65901 0.65901C4.08097 0.237053 4.65326 0 5.25 0ZM4.5 2.25V4.5H22.5V2.25C22.5 2.05109 22.421 1.86032 22.2803 1.71967C22.1397 1.57902 21.9489 1.5 21.75 1.5H5.25C5.05109 1.5 4.86032 1.57902 4.71967 1.71967C4.57902 1.86032 4.5 2.05109 4.5 2.25ZM18.75 8.25H2.25C1.65326 8.25 1.08097 8.48705 0.65901 8.90901C0.237053 9.33097 0 9.90326 0 10.5V21.75C0 22.3467 0.237053 22.919 0.65901 23.341C1.08097 23.7629 1.65326 24 2.25 24H18.75C19.3467 24 19.919 23.7629 20.341 23.341C20.7629 22.919 21 22.3467 21 21.75V10.5C21 9.90326 20.7629 9.33097 20.341 8.90901C19.919 8.48705 19.3467 8.25 18.75 8.25ZM18.75 9.75H2.25C2.05109 9.75 1.86032 9.82902 1.71967 9.96967C1.57902 10.1103 1.5 10.3011 1.5 10.5V12.75H19.5V10.5C19.5 10.3011 19.421 10.1103 19.2803 9.96967C19.1397 9.82902 18.9489 9.75 18.75 9.75ZM18.75 22.5H2.25C2.05109 22.5 1.86032 22.421 1.71967 22.2803C1.57902 22.1397 1.5 21.9489 1.5 21.75V14.25H19.5V21.75C19.5 21.9489 19.421 22.1397 19.2803 22.2803C19.1397 22.421 18.9489 22.5 18.75 22.5ZM12.4012 15.7969H16.7137C17.0035 15.7887 17.2849 15.8948 17.4972 16.0923C17.7094 16.2898 17.8354 16.5629 17.8481 16.8525V19.1475C17.8354 19.4388 17.7081 19.7133 17.4938 19.911C17.2795 20.1088 16.9958 20.2138 16.7044 20.2031H12.3919C12.1007 20.2138 11.8171 20.1087 11.6031 19.9109C11.3892 19.7131 11.2622 19.4386 11.25 19.1475V16.8525C11.256 16.7075 11.2906 16.5651 11.3518 16.4335C11.4129 16.3019 11.4995 16.1837 11.6064 16.0857C11.7134 15.9876 11.8387 15.9116 11.9751 15.862C12.1115 15.8125 12.2563 15.7903 12.4012 15.7969ZM16.3575 18.7031H12.75V17.2969H16.3575V18.7031ZM6.53033 18.5303C6.67098 18.3897 6.75 18.1989 6.75 18C6.75 17.8011 6.67098 17.6103 6.53033 17.4697C6.38968 17.329 6.19891 17.25 6 17.25H3.75C3.55109 17.25 3.36032 17.329 3.21967 17.4697C3.07902 17.6103 3 17.8011 3 18C3 18.1989 3.07902 18.3897 3.21967 18.5303C3.36032 18.671 3.55109 18.75 3.75 18.75H6C6.19891 18.75 6.38968 18.671 6.53033 18.5303Z" fill="black"/>
</svg>
