<svg width="24" height="24" viewBox="0 0 24 24" fill="none" xmlns="http://www.w3.org/2000/svg">
<path fill-rule="evenodd" clip-rule="evenodd" d="M8.64 19.44C8.64 19.6309 8.56414 19.8141 8.42912 19.9491C8.29409 20.0842 8.11095 20.16 7.92 20.16H2.16C1.58713 20.16 1.03773 19.9324 0.63265 19.5274C0.227571 19.1222 0 18.5728 0 18V2.16C0 1.58713 0.227571 1.03773 0.63265 0.63265C1.03773 0.227571 1.58713 0 2.16 0H16.56C17.1328 0 17.6822 0.227571 18.0874 0.63265C18.4924 1.03773 18.72 1.58713 18.72 2.16V8.64C18.72 8.83095 18.6442 9.01409 18.5091 9.14912C18.3741 9.28414 18.1909 9.36 18 9.36C17.8091 9.36 17.6259 9.28414 17.4909 9.14912C17.3558 9.01409 17.28 8.83095 17.28 8.64V2.16C17.28 1.96905 17.2042 1.78591 17.0691 1.65088C16.9341 1.51586 16.7509 1.44 16.56 1.44H2.16C1.96905 1.44 1.78591 1.51586 1.65088 1.65088C1.51586 1.78591 1.44 1.96905 1.44 2.16V18C1.44 18.1909 1.51586 18.3741 1.65088 18.5091C1.78591 18.6442 1.96905 18.72 2.16 18.72H7.92C8.11095 18.72 8.29409 18.7958 8.42912 18.9309C8.56414 19.0659 8.64 19.2491 8.64 19.44ZM22.095 18.7362C22.0716 18.7162 22.0469 18.6975 22.0212 18.6804C21.9315 18.6179 21.8376 18.5613 21.7404 18.5112L19.7154 17.28L21.7386 16.0524C21.8362 15.9988 21.93 15.9386 22.0194 15.8724C22.0451 15.8558 22.0696 15.8378 22.0932 15.8184C22.4954 15.5114 22.7902 15.0851 22.9356 14.6004C23.0809 14.1156 23.0693 13.5974 22.9023 13.1197C22.7354 12.642 22.4218 12.2293 22.0062 11.9407C21.5906 11.652 21.0944 11.502 20.5884 11.5123C20.0825 11.5226 19.5928 11.6926 19.1893 11.9979C18.7859 12.3033 18.4892 12.7284 18.3419 13.2124C18.1945 13.6965 18.2039 14.2148 18.3688 14.6932C18.5338 15.1716 18.8457 15.5856 19.26 15.876L18.3348 16.4376L12.6144 12.969C12.4511 12.8697 12.2551 12.8393 12.0694 12.8845C11.8837 12.9298 11.7237 13.047 11.6244 13.2102C11.5251 13.3735 11.4948 13.5695 11.54 13.7552C11.5852 13.9408 11.7023 14.1009 11.8656 14.2002L16.9398 17.28L11.8656 20.3616C11.7312 20.4432 11.6271 20.5665 11.5693 20.7128C11.5116 20.859 11.5033 21.0202 11.5457 21.1716C11.5882 21.3229 11.679 21.4563 11.8044 21.5512C11.9297 21.6462 12.0828 21.6974 12.24 21.6972C12.372 21.6973 12.5015 21.6612 12.6144 21.5928L18.3276 18.1224L19.2528 18.6858C18.8397 18.978 18.5294 19.3933 18.3664 19.8724C18.2034 20.3514 18.1958 20.8697 18.3449 21.3534C18.494 21.8369 18.792 22.2611 19.1964 22.5652C19.6009 22.8693 20.0911 23.0379 20.597 23.0469C21.103 23.0558 21.5988 22.9047 22.0138 22.6151C22.4288 22.3256 22.7416 21.9123 22.9077 21.4342C23.0739 20.9562 23.0847 20.438 22.9387 19.9535C22.7928 19.469 22.4975 19.0429 22.095 18.7362ZM20.6406 14.8806C20.4102 14.8828 20.1866 14.8027 20.01 14.6548C19.8332 14.5068 19.7151 14.3008 19.6767 14.0736C19.6383 13.8465 19.6821 13.613 19.8004 13.4152C19.9187 13.2175 20.1036 13.0684 20.3219 12.9947C20.5402 12.921 20.7776 12.9276 20.9915 13.0132C21.2053 13.0988 21.3818 13.258 21.4889 13.462C21.5961 13.6659 21.6269 13.9015 21.576 14.1261C21.5251 14.3508 21.3958 14.55 21.2112 14.688L21.0546 14.7816C20.926 14.8458 20.7844 14.8796 20.6406 14.8806ZM19.9622 21.319C20.1421 21.4989 20.3862 21.6 20.6406 21.6C20.8425 21.6011 21.0395 21.5382 21.2033 21.4203C21.3673 21.3025 21.4897 21.1358 21.553 20.9442C21.6163 20.7525 21.6174 20.5457 21.556 20.3534C21.4946 20.1612 21.3739 19.9932 21.2112 19.8738L21.0546 19.7784C20.9259 19.7148 20.7842 19.6815 20.6406 19.6812C20.3862 19.6812 20.1421 19.7822 19.9622 19.9622C19.7822 20.1421 19.6812 20.3862 19.6812 20.6406C19.6812 20.8951 19.7822 21.1391 19.9622 21.319ZM14.1891 5.54912C14.3242 5.41409 14.4 5.23095 14.4 5.04C14.4 4.84905 14.3242 4.66591 14.1891 4.53088C14.0541 4.39586 13.8709 4.32 13.68 4.32H5.04C4.84905 4.32 4.66591 4.39586 4.53088 4.53088C4.39586 4.66591 4.32 4.84905 4.32 5.04C4.32 5.23095 4.39586 5.41409 4.53088 5.54912C4.66591 5.68414 4.84905 5.76 5.04 5.76H13.68C13.8709 5.76 14.0541 5.68414 14.1891 5.54912ZM14.4 9.36C14.4 9.55095 14.3242 9.73411 14.1891 9.86909C14.0541 10.0042 13.8709 10.08 13.68 10.08H5.04C4.84905 10.08 4.66591 10.0042 4.53088 9.86909C4.39586 9.73411 4.32 9.55095 4.32 9.36C4.32 9.16905 4.39586 8.98591 4.53088 8.85088C4.66591 8.71586 4.84905 8.64 5.04 8.64H13.68C13.8709 8.64 14.0541 8.71586 14.1891 8.85088C14.3242 8.98591 14.4 9.16905 14.4 9.36ZM9.30752 14.1891C9.44254 14.0541 9.5184 13.8709 9.5184 13.68C9.5184 13.4891 9.44254 13.3059 9.30752 13.1709C9.17249 13.0358 8.98935 12.96 8.7984 12.96H5.04C4.84905 12.96 4.66591 13.0358 4.53088 13.1709C4.39586 13.3059 4.32 13.4891 4.32 13.68C4.32 13.8709 4.39586 14.0541 4.53088 14.1891C4.66591 14.3242 4.84905 14.4 5.04 14.4H8.7984C8.98935 14.4 9.17249 14.3242 9.30752 14.1891Z" fill="black"/>
</svg>
