<svg width="24" height="24" viewBox="0 0 24 24" fill="none" xmlns="http://www.w3.org/2000/svg">
<path fill-rule="evenodd" clip-rule="evenodd" d="M23.0906 18.2194C22.95 18.0791 22.7595 18.0003 22.5609 18.0003C22.3623 18.0003 22.1718 18.0791 22.0312 18.2194L18.81 21.4387V0.75C18.81 0.551088 18.731 0.360322 18.5903 0.21967C18.4497 0.0790176 18.2589 0 18.06 0C17.8611 0 17.6703 0.0790176 17.5297 0.21967C17.389 0.360322 17.31 0.551088 17.31 0.75V21.4387L14.0906 18.2194C13.9487 18.0848 13.7598 18.011 13.5643 18.0136C13.3687 18.0163 13.1819 18.0953 13.0437 18.2337C12.9055 18.3721 12.8269 18.559 12.8246 18.7546C12.8222 18.9502 12.8964 19.1389 13.0312 19.2806L17.5312 23.7806C17.5661 23.815 17.6037 23.8463 17.6437 23.8744L17.7037 23.9062C17.7261 23.9196 17.7493 23.9315 17.7731 23.9419C17.7981 23.952 17.8238 23.9601 17.85 23.9662C17.8709 23.9736 17.8922 23.9799 17.9137 23.985C17.9595 23.9938 18.0059 23.9988 18.0525 24H18.0694C18.1159 23.9987 18.1623 23.9937 18.2081 23.985C18.2297 23.9799 18.251 23.9736 18.2719 23.9662C18.3233 23.9537 18.3726 23.9334 18.4181 23.9062L18.4762 23.8744C18.5173 23.8468 18.5555 23.8154 18.5906 23.7806L23.0906 19.2806C23.1604 19.211 23.2157 19.1283 23.2534 19.0372C23.2912 18.9462 23.3106 18.8486 23.3106 18.75C23.3106 18.6514 23.2912 18.5538 23.2534 18.4628C23.2157 18.3717 23.1604 18.289 23.0906 18.2194ZM12.3187 9.75937C12.3423 10.0517 12.2508 10.3417 12.0637 10.5675L7.33874 16.7269C7.24228 16.8368 7.12502 16.9265 6.99372 16.9908C6.86242 17.0552 6.71969 17.0929 6.57374 17.1019H6.50249C6.23185 17.1021 5.97047 17.0034 5.76749 16.8244C5.73374 16.7925 5.70187 16.7606 5.67187 16.7269L5.63812 16.6875L0.93749 10.5638C0.756461 10.3384 0.669107 10.0521 0.693545 9.76405C0.717982 9.47604 0.852334 9.20849 1.06874 9.01688L1.12499 8.9775L1.15874 8.95312L3.80624 7.10812C3.99638 6.97129 4.22449 6.89722 4.45874 6.89625H8.54999C8.78425 6.89722 9.01236 6.97129 9.20249 7.10812L11.88 8.96813C12.0025 9.06159 12.1044 9.17922 12.1796 9.31371C12.2547 9.44821 12.3015 9.59671 12.3169 9.75L12.3187 9.75937ZM8.43749 8.39625L10.6519 9.94687L6.50437 15.3525L2.35686 9.9375L4.58062 8.39625H8.43749Z" fill="black"/>
</svg>
