<svg width="24" height="24" viewBox="0 0 24 24" fill="none" xmlns="http://www.w3.org/2000/svg">
<path fill-rule="evenodd" clip-rule="evenodd" d="M23.0046 8.62492C23.6536 9.59619 24 10.7381 24 11.9063C23.9985 13.4722 23.3758 14.9736 22.2685 16.081C21.1611 17.1883 19.6597 17.811 18.0938 17.8125C16.9256 17.8125 15.7837 17.4661 14.8124 16.8171C13.8411 16.1681 13.0841 15.2457 12.6371 14.1665C12.1901 13.0873 12.0731 11.8997 12.301 10.754C12.5289 9.6083 13.0914 8.55591 13.9174 7.7299C14.7434 6.9039 15.7958 6.34138 16.9415 6.11349C18.0872 5.8856 19.2747 6.00256 20.354 6.44959C21.4332 6.89662 22.3556 7.65364 23.0046 8.62492ZM17.3266 14.8456C17.4177 14.8832 17.5152 14.9026 17.6138 14.9025L17.6663 14.9006C17.7736 14.8931 17.878 14.8626 17.9724 14.8111C18.0669 14.7597 18.1492 14.6885 18.2137 14.6025L21.2625 10.5375C21.3216 10.4587 21.3646 10.369 21.389 10.2736C21.4135 10.1782 21.4189 10.0789 21.405 9.98144C21.391 9.88394 21.358 9.79013 21.3079 9.70538C21.2577 9.62063 21.1913 9.5466 21.1125 9.4875C21.0337 9.42841 20.944 9.38541 20.8486 9.36097C20.7532 9.33652 20.6539 9.33111 20.5564 9.34504C20.3595 9.37317 20.1818 9.47837 20.0625 9.6375L17.5331 13.0106L16.1119 11.5894C16.0422 11.5197 15.9595 11.4644 15.8684 11.4267C15.7774 11.389 15.6798 11.3696 15.5812 11.3696C15.4827 11.3696 15.3851 11.389 15.2941 11.4267C15.203 11.4644 15.1203 11.5197 15.0506 11.5894C14.9809 11.6591 14.9257 11.7418 14.888 11.8328C14.8502 11.9239 14.8308 12.0215 14.8308 12.12C14.8308 12.2185 14.8502 12.3161 14.888 12.4072C14.9257 12.4982 14.9809 12.5809 15.0506 12.6506L17.0831 14.6831C17.1528 14.7528 17.2356 14.808 17.3266 14.8456ZM22.5 11.9063C22.5 12.7777 22.2416 13.6296 21.7574 14.3542C21.2732 15.0788 20.5851 15.6436 19.7799 15.9771C18.9748 16.3106 18.0889 16.3979 17.2341 16.2278C16.3794 16.0578 15.5943 15.6382 14.9781 15.0219C14.3618 14.4057 13.9422 13.6206 13.7722 12.7659C13.6021 11.9111 13.6894 11.0252 14.0229 10.2201C14.3564 9.41492 14.9212 8.72675 15.6458 8.24259C16.3704 7.75842 17.2223 7.5 18.0938 7.5C19.2621 7.501 20.3822 7.96554 21.2083 8.79166C22.0345 9.61778 22.499 10.7379 22.5 11.9063ZM10.8897 8.37592C11.0304 8.51658 11.1094 8.70734 11.1094 8.90625V8.91C11.1084 9.10826 11.0289 9.29807 10.8884 9.43791C10.7478 9.57775 10.5576 9.65626 10.3594 9.65625H0.75C0.551088 9.65625 0.360322 9.57724 0.21967 9.43658C0.0790176 9.29593 0 9.10517 0 8.90625C0 8.70734 0.0790176 8.51658 0.21967 8.37592C0.360322 8.23527 0.551088 8.15625 0.75 8.15625H10.3594C10.5583 8.15625 10.7491 8.23527 10.8897 8.37592ZM11.1094 12.105C11.1094 11.9061 11.0304 11.7153 10.8897 11.5747C10.7491 11.434 10.5583 11.355 10.3594 11.355H3.79688C3.59796 11.355 3.4072 11.434 3.26655 11.5747C3.12589 11.7153 3.04688 11.9061 3.04688 12.105C3.04688 12.3039 3.12589 12.4947 3.26655 12.6353C3.4072 12.776 3.59796 12.855 3.79688 12.855H10.3594C10.5576 12.855 10.7478 12.7765 10.8884 12.6367C11.0289 12.4968 11.1084 12.307 11.1094 12.1088V12.105ZM10.8897 14.9665C11.0304 15.1072 11.1094 15.298 11.1094 15.4969V15.5006C11.1084 15.6989 11.0289 15.8887 10.8884 16.0285C10.7478 16.1684 10.5576 16.2469 10.3594 16.2469H7.125C6.92609 16.2469 6.73532 16.1679 6.59467 16.0272C6.45402 15.8866 6.375 15.6958 6.375 15.4969C6.375 15.298 6.45402 15.1072 6.59467 14.9665C6.73532 14.8259 6.92609 14.7469 7.125 14.7469H10.3594C10.5583 14.7469 10.7491 14.8259 10.8897 14.9665Z" fill="black"/>
</svg>
