<svg width="24" height="24" viewBox="0 0 24 24" fill="none" xmlns="http://www.w3.org/2000/svg">
<path fill-rule="evenodd" clip-rule="evenodd" d="M12 7.13812L0 4.57125V1.71188L12 -5e-08L24 1.71188V4.57125L12 7.13812ZM0 20.5762L12 24L24 20.5762V11.0625L12 13.6294L0 11.0625V20.5762ZM12 22.4475L1.5 19.4475V12.915L12 15.165L22.5 12.915V19.4475L12 22.4475ZM12 5.61L1.5 3.36V3.01125L12 1.51125L22.5 3.01125V3.36L12 5.61ZM12 12.75L0 10.2131V5.44687L12 8.01375L24 5.44687V10.2131L12 12.75ZM12 11.2238L1.5 9V7.29938L11.8425 9.51562L12 9.54938L22.5 7.29938V9L12 11.2238Z" fill="black"/>
</svg>
