<svg width="24" height="24" viewBox="0 0 24 24" fill="none" xmlns="http://www.w3.org/2000/svg">
<path fill-rule="evenodd" clip-rule="evenodd" d="M8.87643 6.66884C9.47523 7.06895 10.1792 7.2825 10.8994 7.2825C11.8648 7.28151 12.7904 6.89756 13.4731 6.21491C14.1557 5.53226 14.5397 4.60667 14.5406 3.64125C14.5406 2.92108 14.3271 2.21708 13.927 1.61828C13.5269 1.01948 12.9582 0.552773 12.2928 0.277175C11.6275 0.00157771 10.8954 -0.0705312 10.189 0.0699672C9.48269 0.210466 8.83389 0.557261 8.32465 1.0665C7.81541 1.57574 7.46861 2.22455 7.32812 2.93088C7.18762 3.63721 7.25973 4.36935 7.53532 5.0347C7.81092 5.70005 8.27763 6.26874 8.87643 6.66884ZM9.70979 1.86087C10.0619 1.62558 10.4759 1.5 10.8994 1.5C11.4671 1.5005 12.0115 1.72625 12.4129 2.12771C12.8144 2.52916 13.0402 3.07351 13.0406 3.64125C13.0406 4.06475 12.9151 4.47874 12.6798 4.83087C12.4445 5.18299 12.1101 5.45744 11.7188 5.61951C11.3276 5.78158 10.897 5.82398 10.4817 5.74136C10.0663 5.65874 9.68477 5.4548 9.38531 5.15534C9.08585 4.85589 8.88191 4.47435 8.79929 4.05899C8.71667 3.64363 8.75908 3.21309 8.92114 2.82183C9.08321 2.43057 9.35766 2.09615 9.70979 1.86087ZM20.3156 24C19.5955 24 18.8915 23.7865 18.2927 23.3863C17.6939 22.9862 17.2272 22.4176 16.9516 21.7522C16.676 21.0868 16.6039 20.3547 16.7444 19.6484C16.8849 18.942 17.2317 18.2932 17.7409 17.784C18.2501 17.2748 18.8989 16.928 19.6053 16.7875C20.3116 16.647 21.0437 16.7191 21.7091 16.9947C22.3744 17.2703 22.9431 17.737 23.3432 18.3358C23.7433 18.9346 23.9569 19.6386 23.9569 20.3588C23.9559 21.3242 23.572 22.2498 22.8893 22.9324C22.2067 23.6151 21.2811 23.999 20.3156 24ZM19.126 18.5784C19.4782 18.3431 19.8921 18.2175 20.3156 18.2175C20.8832 18.2185 21.4273 18.4444 21.8286 18.8458C22.23 19.2471 22.4559 19.7912 22.4569 20.3588C22.4569 20.7823 22.3313 21.1962 22.096 21.5484C21.8607 21.9005 21.5263 22.1749 21.1351 22.337C20.7438 22.4991 20.3133 22.5415 19.8979 22.4589C19.4825 22.3762 19.101 22.1723 18.8016 21.8728C18.5021 21.5734 18.2982 21.1919 18.2155 20.7765C18.1329 20.3611 18.1753 19.9306 18.3374 19.5393C18.4995 19.1481 18.7739 18.8137 19.126 18.5784ZM15.5025 21.5925C15.5025 20.2688 14.3044 19.1906 12.8325 19.1906H0.802527C0.603614 19.1906 0.412849 19.2696 0.272197 19.4103C0.131544 19.551 0.0525269 19.7417 0.0525269 19.9406C0.0525269 20.1395 0.131544 20.3303 0.272197 20.471C0.412849 20.6116 0.603614 20.6906 0.802527 20.6906H12.8325C13.4663 20.6906 14.0025 21.1031 14.0025 21.5925C14.0025 22.0819 13.4663 22.5 12.8325 22.5H0.793152C0.594239 22.5 0.403474 22.579 0.262822 22.7197C0.122169 22.8603 0.0431519 23.0511 0.0431519 23.25C0.0431519 23.4489 0.122169 23.6397 0.262822 23.7803C0.403474 23.921 0.594239 24 0.793152 24H12.8325C14.3044 24 15.5025 22.9219 15.5025 21.5981V21.5925ZM16.7269 15.8606L15.9019 16.6875C15.4446 17.0953 14.8488 17.3129 14.2364 17.2958C13.6239 17.2787 13.0412 17.0282 12.6073 16.5956C12.1735 16.1629 11.9214 15.5809 11.9026 14.9685C11.8838 14.3561 12.0998 13.7597 12.5063 13.3013L12.8494 12.9581C12.9904 12.8176 13.1814 12.7389 13.3804 12.7393C13.5794 12.7396 13.7702 12.819 13.9106 12.96C14.0511 13.101 14.1299 13.292 14.1295 13.491C14.1292 13.69 14.0498 13.8808 13.9088 14.0213L13.5656 14.3625C13.3967 14.5316 13.3017 14.7609 13.3017 15C13.3017 15.2391 13.3967 15.4684 13.5656 15.6375C13.6493 15.7214 13.7486 15.788 13.858 15.8334C13.9674 15.8788 14.0847 15.9022 14.2031 15.9022C14.3216 15.9022 14.4389 15.8788 14.5483 15.8334C14.6577 15.788 14.757 15.7214 14.8406 15.6375L15.6675 14.8125C15.7528 14.7277 15.8206 14.6269 15.8669 14.5159C15.9133 14.4049 15.9372 14.2859 15.9375 14.1656V12.5119C15.937 12.176 15.8704 11.8436 15.7414 11.5335C15.6124 11.2233 15.4236 10.9417 15.1858 10.7045C14.948 10.4674 14.6658 10.2794 14.3553 10.1514C14.0448 10.0233 13.7121 9.95764 13.3763 9.95813H8.42065C7.74366 9.95912 7.09468 10.2285 6.61597 10.7072C6.13727 11.1859 5.86789 11.8349 5.8669 12.5119V14.1731C5.86734 14.4128 5.96235 14.6425 6.13128 14.8125L6.95628 15.6281C7.03999 15.712 7.1394 15.7785 7.24883 15.8239C7.35826 15.8693 7.47557 15.8928 7.59405 15.8929C7.71253 15.8929 7.82987 15.8697 7.93937 15.8244C8.04886 15.7792 8.14837 15.7128 8.23221 15.6291C8.31605 15.5453 8.38258 15.4459 8.42801 15.3365C8.47343 15.2271 8.49685 15.1098 8.49694 14.9913C8.49702 14.8728 8.47377 14.7555 8.42851 14.646C8.38325 14.5365 8.31687 14.437 8.23315 14.3531L7.8919 14.0119C7.82209 13.9423 7.76667 13.8597 7.7288 13.7687C7.69093 13.6777 7.67135 13.5802 7.67117 13.4816C7.671 13.3831 7.69023 13.2855 7.72779 13.1944C7.76534 13.1033 7.82047 13.0204 7.89003 12.9506C7.95958 12.8808 8.04221 12.8254 8.13319 12.7875C8.22417 12.7497 8.32172 12.7301 8.42026 12.7299C8.51881 12.7297 8.61642 12.749 8.70754 12.7865C8.79865 12.8241 8.88147 12.8792 8.95128 12.9488L9.29253 13.29C9.51961 13.5121 9.7004 13.777 9.82442 14.0694C9.94844 14.3618 10.0132 14.6759 10.0151 14.9935C10.0169 15.3111 9.95568 15.6259 9.83501 15.9197C9.71434 16.2136 9.5366 16.4805 9.31207 16.7052C9.08754 16.9298 8.82068 17.1077 8.52694 17.2285C8.2332 17.3494 7.91842 17.4107 7.6008 17.4091C7.28318 17.4075 6.96905 17.3428 6.67657 17.219C6.3841 17.0951 6.1191 16.9145 5.8969 16.6875L5.06253 15.8625C4.84003 15.6394 4.66399 15.3744 4.54459 15.0828C4.42519 14.7912 4.36479 14.4788 4.3669 14.1638V12.5119C4.36839 11.4372 4.79596 10.407 5.55586 9.64709C6.31576 8.88718 7.34599 8.45962 8.42065 8.45813H13.3763C14.4522 8.45763 15.4844 8.88432 16.2459 9.64444C17.0074 10.4046 17.436 11.4359 17.4375 12.5119V14.1638C17.4373 14.4796 17.3744 14.7922 17.2524 15.0835C17.1304 15.3748 16.9518 15.6389 16.7269 15.8606Z" fill="black"/>
</svg>
