<svg width="24" height="24" viewBox="0 0 24 24" fill="none" xmlns="http://www.w3.org/2000/svg">
<path fill-rule="evenodd" clip-rule="evenodd" d="M15.7506 4.50841L23.9099 19.2684C23.9703 19.378 24.0011 19.5015 23.9992 19.6265C23.9974 19.7516 23.9629 19.874 23.8994 19.9817C23.8358 20.0895 23.7452 20.1788 23.6366 20.2409C23.528 20.303 23.4051 20.3357 23.28 20.3358H1.67998C1.55616 20.3359 1.43439 20.3041 1.32645 20.2434C1.21852 20.1827 1.12806 20.0952 1.06382 19.9893C0.999579 19.8834 0.963727 19.7629 0.959726 19.6391C0.955726 19.5153 0.983714 19.3926 1.04098 19.2828L5.36098 11.0028C5.41723 10.8948 5.49994 10.8028 5.6014 10.7354C5.70287 10.6681 5.81976 10.6276 5.94114 10.6177C6.06252 10.6078 6.18442 10.6288 6.29545 10.6789C6.40648 10.729 6.503 10.8063 6.57599 10.9038L7.99258 12.7884L12.5718 4.50841C12.5891 4.47682 12.6089 4.44671 12.6312 4.41841C12.9426 4.01422 13.4012 3.74956 13.907 3.68213C14.4128 3.61469 14.9247 3.74994 15.3312 4.05841C15.4664 4.16221 15.5874 4.28323 15.6912 4.41841C15.7131 4.447 15.7329 4.47708 15.7506 4.50841ZM14.1176 5.10477C13.9949 5.11544 13.8807 5.17176 13.7976 5.26261L11.337 9.71401L12.6402 10.9578L13.0974 10.4484C13.2295 10.298 13.3919 10.1773 13.574 10.0941C13.7561 10.011 13.9538 9.9673 14.1539 9.96601C14.3531 9.96797 14.5494 10.012 14.7302 10.0951C14.9111 10.1782 15.0723 10.2986 15.2034 10.4484L15.6606 10.9596L16.98 9.72301L14.523 5.26261C14.5042 5.24115 14.483 5.22182 14.46 5.20501C14.3625 5.12988 14.2403 5.09411 14.1176 5.10477ZM6.10978 12.6822L7.22759 14.1726L4.61578 18.8958H2.86799L6.10978 12.6822ZM8.66938 14.538L6.26098 18.8958L22.0667 18.8941L17.7126 11.0208L16.6326 12.0252C16.373 12.2754 16.0265 12.4154 15.6659 12.4158H15.6083C15.4181 12.4071 15.2315 12.3602 15.0598 12.2775C14.8881 12.195 14.7349 12.0785 14.6094 11.9352L14.1539 11.4258L13.7003 11.9352C13.5744 12.0784 13.4208 12.1948 13.2489 12.2774C13.0769 12.3599 12.8901 12.4071 12.6995 12.4158C12.5108 12.4234 12.3224 12.3927 12.1457 12.3256C11.9691 12.2584 11.8079 12.1563 11.6718 12.0252L10.617 11.0172L8.75578 14.3832C8.73375 14.4383 8.70471 14.4903 8.66938 14.538Z" fill="black"/>
</svg>
