<svg width="24" height="24" viewBox="0 0 24 24" fill="none" xmlns="http://www.w3.org/2000/svg">
<path d="M23.9531 10.3631C23.6409 8.11427 22.6978 5.99992 21.2331 4.26513C19.7684 2.53035 17.8421 1.24615 15.6773 0.561379C13.5126 -0.123392 11.1982 -0.1807 9.00225 0.396095C6.80631 0.972891 4.81877 2.16017 3.27 3.82034C1.72122 5.48051 0.67462 7.54559 0.251487 9.77625C-0.171646 12.0069 0.0460145 14.3118 0.879244 16.4238C1.71247 18.5358 3.12716 20.3685 4.95933 21.7094C6.79151 23.0503 8.96617 23.8445 11.2313 24H11.2838C11.4827 24.0067 11.6761 23.9341 11.8215 23.7982C11.9669 23.6623 12.0524 23.4742 12.0591 23.2753C12.0658 23.0764 11.9932 22.883 11.8573 22.7376C11.7214 22.5922 11.5333 22.5067 11.3344 22.5C9.35195 22.3642 7.44858 21.6694 5.84491 20.496C4.24123 19.3227 3.00293 17.7189 2.27353 15.8705C1.54414 14.0221 1.35351 12.0049 1.72376 10.0526C2.09401 8.10029 3.00996 6.2929 4.36545 4.83992C5.72095 3.38694 7.46047 2.34786 9.38239 1.84313C11.3043 1.3384 13.3299 1.38868 15.2244 1.98815C17.1189 2.58763 18.8047 3.71174 20.0865 5.23019C21.3682 6.74864 22.1933 8.59925 22.4663 10.5675C22.4798 10.6651 22.5124 10.7591 22.5623 10.8442C22.6122 10.9292 22.6783 11.0035 22.7569 11.063C22.8355 11.1224 22.9251 11.1658 23.0205 11.1907C23.1159 11.2155 23.2152 11.2214 23.3128 11.2078C23.4105 11.1943 23.5045 11.1616 23.5895 11.1118C23.6745 11.0619 23.7489 10.9958 23.8083 10.9172C23.8678 10.8385 23.9112 10.749 23.936 10.6536C23.9609 10.5582 23.9667 10.4589 23.9531 10.3613V10.3631Z" fill="black"/>
<path fill-rule="evenodd" clip-rule="evenodd" d="M12.8025 7.25813H10.5525C10.3536 7.25813 10.1628 7.33714 10.0222 7.4778C9.88151 7.61845 9.80249 7.80921 9.80249 8.00813V17.0194C9.80249 17.2183 9.88151 17.4091 10.0222 17.5497C10.1628 17.6904 10.3536 17.7694 10.5525 17.7694C10.7514 17.7694 10.9422 17.6904 11.0828 17.5497C11.2235 17.4091 11.3025 17.2183 11.3025 17.0194V13.2694H12.8025C13.5981 13.2694 14.3612 12.9533 14.9238 12.3907C15.4864 11.8281 15.8025 11.065 15.8025 10.2694C15.8025 9.47373 15.4864 8.71066 14.9238 8.14806C14.3612 7.58545 13.5981 7.26938 12.8025 7.26938V7.25813ZM12.8025 11.7581H11.3025V8.75813H12.8025C13.2003 8.75813 13.5818 8.91616 13.8632 9.19747C14.1445 9.47877 14.3025 9.8603 14.3025 10.2581C14.3025 10.656 14.1445 11.0375 13.8632 11.3188C13.5818 11.6001 13.2003 11.7581 12.8025 11.7581ZM19.5619 17.2688H19.56H18.8119C18.81 17.5369 19.2619 17.7825 19.8975 18.0994L19.902 18.1016C20.7097 18.5064 21.8137 19.0597 21.8137 20.2725C21.8137 20.6703 21.6557 21.0519 21.3744 21.3332C21.0931 21.6145 20.7116 21.7725 20.3137 21.7725V22.5225C20.3137 22.7214 20.2347 22.9122 20.0941 23.0528C19.9534 23.1935 19.7627 23.2725 19.5637 23.2725C19.3648 23.2725 19.1741 23.1935 19.0334 23.0528C18.8928 22.9122 18.8137 22.7214 18.8137 22.5225V21.7725H18.0637C17.8648 21.7725 17.6741 21.6935 17.5334 21.5528C17.3928 21.4122 17.3137 21.2214 17.3137 21.0225C17.3137 20.8236 17.3928 20.6328 17.5334 20.4922C17.6741 20.3515 17.8648 20.2725 18.0637 20.2725H20.3137C20.3137 20.0044 19.8637 19.7606 19.2262 19.4419L19.2217 19.4397C18.414 19.0349 17.31 18.4816 17.31 17.2688C17.31 16.8709 17.468 16.4894 17.7493 16.2081C18.0306 15.9268 18.4122 15.7688 18.81 15.7688V15.0188C18.81 14.8198 18.889 14.6291 19.0297 14.4884C19.1703 14.3478 19.3611 14.2688 19.56 14.2688C19.7589 14.2688 19.9497 14.3478 20.0903 14.4884C20.231 14.6291 20.31 14.8198 20.31 15.0188V15.7688H21.06C21.2589 15.7688 21.4497 15.8478 21.5903 15.9884C21.731 16.1291 21.81 16.3198 21.81 16.5188C21.81 16.7177 21.731 16.9084 21.5903 17.0491C21.4497 17.1897 21.2589 17.2688 21.06 17.2688H19.5619Z" fill="black"/>
</svg>
