<svg width="24" height="24" viewBox="0 0 24 24" fill="none" xmlns="http://www.w3.org/2000/svg">
<path fill-rule="evenodd" clip-rule="evenodd" d="M11.8789 19.9182C10.0955 19.9195 8.31609 19.7491 6.56537 19.4094L6.15172 19.3281C5.41095 19.1775 4.70998 19.0356 4.01941 19.0598C3.93078 19.0598 3.84122 19.0672 3.75209 19.0746L3.75206 19.0746C3.71937 19.0773 3.68673 19.08 3.65421 19.0823C3.2755 19.125 2.89293 19.1203 2.51537 19.0685C1.72095 18.9335 1.10652 18.4125 0.957675 17.7427C0.793255 17.04 1.13075 16.4792 1.4146 16.0292C1.52337 15.8655 1.61611 15.6916 1.69152 15.51C1.82998 15.1275 1.71229 14.6274 1.58767 14.0994C1.55652 13.9697 1.52537 13.8398 1.49941 13.7118C1.28865 12.7085 1.27572 11.6738 1.46133 10.6656C1.49419 10.4927 1.53223 10.3197 1.57028 10.1467L1.57037 10.1464C1.69844 9.56827 1.81787 9.02308 1.68287 8.57135C1.61426 8.37414 1.52673 8.18402 1.42152 8.00366C1.26265 7.73034 1.13492 7.44006 1.04075 7.13827C0.954121 6.88069 0.930906 6.60601 0.97309 6.33754C1.01527 6.06908 1.1216 5.81476 1.28306 5.59615C1.47265 5.37202 1.71268 5.19602 1.98344 5.0826C2.25422 4.96917 2.54802 4.92156 2.84075 4.94366C3.78375 4.9722 4.72753 4.92764 5.66364 4.81038C6.2971 4.73077 6.94441 4.62692 7.56749 4.52654L7.59599 4.52198C8.8956 4.31396 10.2394 4.09888 11.6036 4.07654C13.2046 4.04885 14.7951 4.28769 16.3287 4.51962C17.9382 4.76192 19.4596 4.99038 21.0017 4.94192H21.0207L21.0231 4.94185C21.4175 4.92975 21.958 4.91316 22.421 5.24481C23.1548 5.77269 23.1756 6.76097 22.871 7.50866C22.7879 7.71115 22.6979 7.89635 22.5975 8.07462C22.4624 8.29901 22.3615 8.54225 22.2981 8.79635C22.2797 9.11771 22.3202 9.43971 22.4174 9.74654L22.4258 9.78207L22.4258 9.78242C22.4403 9.84441 22.4546 9.90538 22.4677 9.96635C22.7432 11.1927 22.7667 12.4622 22.5369 13.6979C22.5144 13.8174 22.4902 13.9402 22.4643 14.0631C22.3565 14.4669 22.3105 14.8847 22.3274 15.3023C22.3382 15.3967 22.3597 15.4897 22.3915 15.5792C22.4615 15.7444 22.5436 15.9041 22.6373 16.0569C22.8951 16.5035 23.2154 17.0608 23.0527 17.7427C22.89 18.4246 22.2461 18.9543 21.4205 19.0789C21.0401 19.1211 20.6559 19.117 20.2766 19.0667C20.1433 19.0529 20.0082 19.039 19.875 19.0338C19.1847 18.9959 18.472 19.1438 17.7232 19.2991L17.7167 19.3004L17.3256 19.38C15.532 19.7375 13.7077 19.9178 11.8789 19.9182ZM4.17691 17.6682C4.93503 17.6914 5.68886 17.7911 6.42691 17.9659L6.83018 18.0456C10.2072 18.6971 13.6782 18.6888 17.0521 18.0213L17.4328 17.9435C18.2359 17.7704 19.0684 17.5974 19.9407 17.6492C20.0497 17.6492 20.1586 17.6611 20.2676 17.673C20.3144 17.6781 20.3613 17.6832 20.4081 17.6874C20.6769 17.7253 20.9492 17.7329 21.2198 17.7098C21.4759 17.6718 21.6767 17.5367 21.7027 17.4225C21.7373 17.2754 21.5833 17.0071 21.4327 16.7475C21.2974 16.5272 21.1815 16.2955 21.0866 16.0552C21.017 15.8635 20.9705 15.6642 20.9481 15.4615C20.9109 14.8965 20.9641 14.3292 21.1056 13.781C21.1122 13.7472 21.1191 13.7135 21.1259 13.6797C21.1421 13.5995 21.1584 13.5189 21.173 13.4348C21.3664 12.3864 21.3465 11.3097 21.1143 10.2692L21.1139 10.2679L21.1139 10.2678C21.0984 10.2008 21.0829 10.1337 21.0658 10.0667C20.9201 9.58372 20.8731 9.07638 20.9273 8.57481C21.0101 8.17114 21.1593 7.78398 21.3687 7.42904L21.3827 7.40222C21.4589 7.25635 21.5312 7.11798 21.585 6.98423C21.7096 6.67962 21.6715 6.41308 21.611 6.36808C21.5504 6.32308 21.2648 6.31789 21.0605 6.32308H21.0415C19.3696 6.37327 17.7167 6.12577 16.1175 5.8852C14.5719 5.65154 13.1146 5.43174 11.6175 5.45769C10.3402 5.47846 9.09575 5.6775 7.77691 5.89038L7.76578 5.89216L7.76578 5.89216C7.1306 5.99373 6.47501 6.09856 5.82114 6.18115C4.81499 6.30704 3.80063 6.35507 2.7871 6.32481C2.71243 6.31442 2.63639 6.31984 2.56394 6.34071C2.49149 6.36158 2.42423 6.39744 2.36652 6.44597C2.30595 6.52558 2.34229 6.69 2.36652 6.7575C2.43473 6.96266 2.52466 7.15993 2.63479 7.34597C2.7844 7.61038 2.90676 7.88932 2.99998 8.17846C3.23568 8.96986 3.06608 9.74757 2.91615 10.4351L2.91344 10.4475C2.8771 10.6067 2.84249 10.7659 2.81306 10.9235C2.65923 11.7534 2.66923 12.6053 2.84249 13.4313C2.86019 13.5116 2.87871 13.5919 2.89748 13.6733L2.92383 13.7879L2.92512 13.7934C3.08231 14.4601 3.26058 15.2162 2.98441 15.9825C2.87789 16.2528 2.74392 16.5114 2.5846 16.7544L2.57368 16.7721C2.41796 17.0242 2.26174 17.2771 2.29556 17.4259C2.3198 17.5281 2.50672 17.6631 2.74729 17.7046C3.01355 17.7349 3.28238 17.7349 3.54864 17.7046L3.55585 17.7041C3.69364 17.6939 3.83143 17.6838 3.96921 17.6787C4.03844 17.6735 4.10768 17.6735 4.17691 17.6735V17.6682ZM19.8905 11.2056C19.8905 12.9052 19.3835 14.2552 18.3796 15.2175V15.2227C16.9396 16.6038 14.9596 16.6921 14.4819 16.6869H14.3781C14.1944 16.6794 14.0213 16.5991 13.8969 16.464C13.7724 16.3288 13.7067 16.1497 13.7143 15.9661C13.7219 15.7825 13.8021 15.6093 13.9372 15.4849C14.0725 15.3604 14.2515 15.2947 14.4351 15.3023C14.4354 15.3023 14.436 15.3023 14.437 15.3023C14.5044 15.3035 16.2667 15.3337 17.4294 14.212C18.1443 13.5197 18.5059 12.5089 18.5059 11.2056C18.5059 11.022 18.5789 10.8459 18.7087 10.716C18.8386 10.5862 19.0146 10.5133 19.1982 10.5133C19.3818 10.5133 19.5579 10.5862 19.6878 10.716C19.8176 10.8459 19.8905 11.022 19.8905 11.2056Z" fill="black"/>
</svg>
