<svg width="24" height="24" viewBox="0 0 24 24" fill="none" xmlns="http://www.w3.org/2000/svg">
<path fill-rule="evenodd" clip-rule="evenodd" d="M18.8877 0.479996H18.6122C17.9124 0.479922 17.22 0.623575 16.5781 0.902051C15.9361 1.18053 15.3581 1.58789 14.88 2.09889C14.402 2.6099 14.0339 3.21364 13.7987 3.87272C13.5635 4.5318 13.4662 5.23217 13.5128 5.9304L14.3877 19.02C14.4607 20.2406 14.9983 21.3871 15.8901 22.2239C16.7817 23.0607 17.9599 23.5245 19.1829 23.52H19.3485C20.5991 23.4833 21.7859 22.959 22.655 22.0589C23.5242 21.1588 24.0068 19.9544 23.9997 18.7032V5.59019C23.9977 4.23516 23.4584 2.93619 22.5001 1.97821C21.5418 1.02022 20.2426 0.481424 18.8877 0.479996ZM6.07161 0.479996H6.34701C7.04647 0.479955 7.73849 0.623507 8.38023 0.901763C9.02196 1.18002 9.59973 1.58706 10.0778 2.09766C10.5558 2.60827 10.924 3.21158 11.1594 3.87024C11.3948 4.52888 11.4925 5.22886 11.4464 5.9268L10.5717 19.02C10.4981 20.2405 9.96036 21.3867 9.06873 22.2234C8.17711 23.0602 6.99915 23.524 5.77641 23.52H5.61081C4.36012 23.4833 3.17337 22.959 2.30423 22.0589C1.43508 21.1588 0.952494 19.9544 0.959611 18.7032V5.59019C0.961517 4.23516 1.50077 2.93619 2.4591 1.97821C3.41742 1.02022 4.71658 0.481424 6.07161 0.479996ZM2.39961 9.6474C3.63261 8.7114 4.87461 8.2938 6.10761 8.4C7.33161 8.499 8.53941 9.1308 9.71301 10.2774L9.83361 8.4594C8.59161 6.924 7.37661 6.0996 6.17961 5.9898C4.98261 5.88 3.71541 6.5172 2.39961 7.86V9.6474ZM6.07161 1.92H6.34701C6.84961 1.92013 7.34684 2.02344 7.8079 2.22352C8.26896 2.42361 8.68403 2.71622 9.02742 3.08323C9.3708 3.45024 9.63519 3.88384 9.80421 4.35717C9.97322 4.8305 10.0433 5.3335 10.01 5.83499L9.95961 6.465C8.76621 5.304 7.53681 4.665 6.29301 4.5516C5.00421 4.44 3.69741 4.9008 2.39961 5.92139V5.59019C2.40104 4.61692 2.78843 3.68396 3.4768 2.99592C4.16518 2.30787 5.09834 1.92095 6.07161 1.92ZM8.01687 21.176C8.6638 20.598 9.06305 19.793 9.13161 18.9282L9.58161 12.2772C8.35581 10.7526 7.14621 9.92819 5.98161 9.8256C4.85481 9.73019 3.64881 10.308 2.39961 11.5499V18.7032C2.41027 19.5707 2.75488 20.4006 3.36178 21.0203C3.96867 21.6402 4.79114 22.0023 5.65814 22.0312C6.52514 22.0602 7.36994 21.7539 8.01687 21.176ZM18.5997 5.9988C17.4422 5.9988 16.2597 6.7008 15.1077 8.0832L15.2174 9.84C16.364 8.8032 17.5629 8.274 18.8013 8.274C20.0397 8.274 21.2888 8.7996 22.5597 9.84V8.238C21.1466 6.75299 19.8165 5.9988 18.5997 5.9988ZM15.9392 3.0828C16.2821 2.7172 16.6961 2.42548 17.1557 2.22553C17.6154 2.02559 18.111 1.92161 18.6122 1.92H18.8877C19.8609 1.92095 20.794 2.30787 21.4824 2.99592C22.1708 3.68396 22.5582 4.61692 22.5597 5.59019V6.2562C21.224 5.1312 19.8974 4.5588 18.5997 4.5588C17.3397 4.5588 16.1264 5.0898 14.9637 6.141L14.9421 5.83499C14.9106 5.33298 14.9821 4.82982 15.1524 4.35651C15.3226 3.8832 15.5879 3.44973 15.932 3.0828H15.9392ZM16.9185 21.2149C17.5684 21.8039 18.4234 22.1145 19.2998 22.08C20.1763 22.0547 21.0081 21.6873 21.6173 21.0566C22.2264 20.4259 22.5646 19.5819 22.5597 18.705V11.8056C21.2222 10.4214 19.9461 9.7176 18.8013 9.7176C17.6565 9.7176 16.4954 10.416 15.347 11.7912L15.824 18.93C15.8757 19.8056 16.2686 20.626 16.9185 21.2149Z" fill="black"/>
</svg>
