<svg width="24" height="24" viewBox="0 0 24 24" fill="none" xmlns="http://www.w3.org/2000/svg">
<path fill-rule="evenodd" clip-rule="evenodd" d="M22.3362 8.94C17.028 8.8212 14.5638 6.3642 14.58 1.2108V1.2C14.58 1.00905 14.5042 0.825912 14.3691 0.690887C14.2341 0.55586 14.0509 0.480003 13.86 0.480003C13.6691 0.480003 13.4859 0.55586 13.3509 0.690887C13.2158 0.825912 13.14 1.00905 13.14 1.2C13.1202 6.4038 10.656 8.8626 5.3892 8.94C5.19825 8.94143 5.01567 9.01867 4.88167 9.15471C4.74765 9.29074 4.67316 9.47445 4.67459 9.6654C4.67603 9.85636 4.75327 10.0389 4.8893 10.1729C5.02534 10.3069 5.20905 10.3814 5.4 10.38H5.4234C10.6434 10.38 13.0878 12.8424 13.14 18.12C13.14 18.3088 13.2141 18.4901 13.3464 18.6247C13.4787 18.7594 13.6586 18.8367 13.8474 18.84H13.86C14.0449 18.8402 14.2228 18.7693 14.3568 18.6421C14.4908 18.5147 14.5708 18.3406 14.58 18.156C14.841 12.9252 17.3538 10.38 22.2624 10.38H22.32C22.5109 10.3821 22.695 10.3084 22.8315 10.1749C22.968 10.0413 23.046 9.85906 23.0481 9.66811C23.0503 9.47714 22.9764 9.29316 22.8429 9.15662C22.7095 9.02007 22.5272 8.94215 22.3362 8.94ZM6.12 13.44C6.12 16.1274 7.3368 17.3478 10.0944 17.4C10.2853 17.4019 10.4677 17.4796 10.6014 17.616C10.7351 17.7523 10.8091 17.9363 10.8072 18.1272C10.8053 18.3181 10.7276 18.5005 10.5912 18.6342C10.4549 18.7679 10.2709 18.8419 10.08 18.84H10.0494C7.50421 18.84 6.25499 20.1108 6.12 22.836C6.11075 23.0206 6.03084 23.1947 5.8968 23.3221C5.76276 23.4493 5.58488 23.5202 5.4 23.52H5.3856C5.19715 23.5163 5.01769 23.4387 4.88577 23.3041C4.75384 23.1695 4.67996 22.9885 4.68 22.8C4.6548 20.064 3.4344 18.84 0.72 18.84C0.529045 18.84 0.345909 18.7642 0.210883 18.6291C0.0758569 18.4941 0 18.3109 0 18.12C0 17.9291 0.0758569 17.7459 0.210883 17.6109C0.345909 17.4758 0.529045 17.4 0.72 17.4C3.447 17.3622 4.68 16.14 4.68 13.44C4.68 13.2491 4.75586 13.0659 4.89088 12.9309C5.02591 12.7958 5.20905 12.72 5.4 12.72C5.59095 12.72 5.77409 12.7958 5.90912 12.9309C6.04414 13.0659 6.12 13.2491 6.12 13.44ZM3.843 18.1074C4.52306 18.4903 5.07856 19.0608 5.4432 19.7508C5.80788 19.0789 6.34782 18.5185 7.0056 18.129C6.33655 17.7671 5.7808 17.2269 5.4 16.5684C5.03124 17.214 4.49277 17.7462 3.843 18.1074ZM13.932 13.998C14.307 12.9913 14.8847 12.0723 15.6294 11.298C16.334 10.5855 17.1794 10.0276 18.1116 9.66C16.0464 8.8896 14.6244 7.5096 13.8456 5.52C13.4726 6.48226 12.8975 7.35328 12.159 8.0742C11.4494 8.7494 10.6123 9.27627 9.69658 9.624C11.7642 10.4136 13.176 11.8716 13.932 13.998Z" fill="black"/>
</svg>
