<svg width="24" height="24" viewBox="0 0 24 24" fill="none" xmlns="http://www.w3.org/2000/svg">
<path fill-rule="evenodd" clip-rule="evenodd" d="M18.6337 0.219375L23.1337 4.71938C23.2064 4.78826 23.2645 4.87099 23.3046 4.96269C23.3448 5.05439 23.3662 5.1532 23.3676 5.2533C23.3689 5.3534 23.3502 5.45275 23.3126 5.54552C23.275 5.63828 23.2191 5.72257 23.1484 5.79342C23.0777 5.86427 22.9935 5.92024 22.9008 5.95804C22.8081 5.99584 22.7088 6.0147 22.6087 6.0135C22.5086 6.01231 22.4097 5.99109 22.318 5.9511C22.2262 5.9111 22.1434 5.85314 22.0744 5.78062L18.8531 2.56125V23.25C18.8531 23.4489 18.7741 23.6397 18.6334 23.7803C18.4928 23.921 18.302 24 18.1031 24C17.9042 24 17.7134 23.921 17.5728 23.7803C17.4321 23.6397 17.3531 23.4489 17.3531 23.25V2.56125L14.13 5.78062C13.9881 5.91522 13.7992 5.98905 13.6036 5.98637C13.408 5.9837 13.2213 5.90473 13.0831 5.7663C12.9449 5.62788 12.8663 5.44095 12.8639 5.24538C12.8616 5.0498 12.9358 4.86105 13.0706 4.71938L17.5706 0.219375C17.6057 0.184573 17.644 0.153182 17.685 0.125625L17.7431 0.09375C17.7654 0.0804014 17.7886 0.0685019 17.8125 0.058125C17.8388 0.0481445 17.8657 0.0399999 17.8931 0.03375C17.914 0.0263862 17.9353 0.0201275 17.9569 0.015C18.0026 0.00620243 18.049 0.0011855 18.0956 0H18.1125C18.1591 0.0011855 18.2055 0.00620243 18.2512 0.015C18.2728 0.0201275 18.2941 0.0263862 18.315 0.03375C18.3406 0.0398902 18.3657 0.0480405 18.39 0.058125C18.4146 0.068103 18.4385 0.0800151 18.4612 0.09375L18.5194 0.125625C18.5604 0.153182 18.5987 0.184573 18.6337 0.219375ZM10.9387 9.29625H8.98498L7.77748 6.91687C7.6567 6.68453 7.47447 6.48978 7.25064 6.35387C7.02681 6.21795 6.76997 6.14608 6.5081 6.14608C6.24624 6.14608 5.9894 6.21795 5.76557 6.35387C5.54174 6.48978 5.35951 6.68453 5.23873 6.91687L4.0256 9.29062H2.0906C1.80736 9.28409 1.5287 9.36293 1.29086 9.51688C1.05301 9.67084 0.86699 9.89279 0.756973 10.1539C0.646955 10.415 0.618034 10.7031 0.673968 10.9809C0.729901 11.2586 0.868103 11.5131 1.07061 11.7112L2.91935 13.53L1.89373 15.8887C1.80946 16.0909 1.77306 16.3098 1.78737 16.5284C1.80168 16.747 1.86632 16.9593 1.97623 17.1487C2.16443 17.4722 2.47273 17.7082 2.83405 17.8054C3.19537 17.9027 3.58048 17.8533 3.9056 17.6681L6.50435 16.2056L9.09748 17.6681C9.28699 17.778 9.49939 17.8425 9.71801 17.8565C9.93663 17.8705 10.1555 17.8336 10.3575 17.7488C10.5309 17.6762 10.6882 17.5699 10.82 17.4359C10.9519 17.3019 11.0558 17.143 11.1256 16.9685C11.1954 16.794 11.2298 16.6073 11.2267 16.4193C11.2236 16.2313 11.183 16.0459 11.1075 15.8738L10.0912 13.5356L11.9362 11.7188C12.0733 11.5872 12.1824 11.4292 12.2569 11.2544C12.3314 11.0796 12.3698 10.8916 12.3698 10.7016C12.3698 10.5115 12.3314 10.3235 12.2569 10.1487C12.1824 9.9739 12.0733 9.81596 11.9362 9.68438C11.804 9.55677 11.6477 9.45674 11.4765 9.39011C11.3052 9.32347 11.1224 9.29157 10.9387 9.29625ZM8.67185 12.8269C8.56373 12.9333 8.49044 13.0701 8.46165 13.219C8.43286 13.368 8.44993 13.5222 8.5106 13.6613L9.6356 16.2506L6.87373 14.6906C6.76152 14.6275 6.63496 14.5944 6.50623 14.5944C6.3775 14.5944 6.25094 14.6275 6.13873 14.6906L3.37498 16.2469L4.49998 13.6575C4.56042 13.5183 4.57719 13.3639 4.54806 13.215C4.51894 13.066 4.44529 12.9294 4.33685 12.8231L2.27435 10.7906H4.48686C4.62528 10.7909 4.76109 10.7529 4.87923 10.6807C4.99737 10.6086 5.09325 10.5051 5.15623 10.3819L6.50435 7.725L7.85623 10.3856C7.91896 10.5092 8.01472 10.6131 8.13288 10.6855C8.25104 10.758 8.38698 10.7964 8.52561 10.7963H10.7362L8.67185 12.8269Z" fill="black"/>
</svg>
