<svg width="24" height="24" viewBox="0 0 24 24" fill="none" xmlns="http://www.w3.org/2000/svg">
<path fill-rule="evenodd" clip-rule="evenodd" d="M2.99811 22.988C3.69262 23.638 4.60818 23.9997 5.55939 24H19.2206C20.0422 24.0002 20.8411 23.7306 21.4945 23.2327C22.148 22.7347 22.6198 22.0359 22.8375 21.2438L23.2519 19.7231C23.4177 19.1163 23.4282 18.4774 23.2824 17.8654C23.1366 17.2534 22.8391 16.688 22.4174 16.2211C21.9958 15.7542 21.4634 15.4009 20.8693 15.1938C20.2753 14.9866 19.6387 14.9322 19.0181 15.0356L11.1 16.3481C11.4757 11.5404 10.6738 6.71359 8.76376 2.28562C8.47628 1.60788 7.99566 1.02974 7.38182 0.623295C6.76798 0.216849 6.04809 7.5777e-05 5.31189 0H2.85377C2.55765 0.00195926 2.26484 0.0623501 1.99211 0.17771C1.71939 0.29307 1.47212 0.461129 1.26448 0.672251C1.05684 0.883374 0.892921 1.13341 0.782115 1.40801C0.671308 1.68262 0.615798 1.9764 0.618765 2.2725V2.4L1.81877 20.4994C1.88202 21.4485 2.30359 22.3381 2.99811 22.988ZM2.56975 1.55815C2.66149 1.51975 2.75994 1.49999 2.85939 1.5H5.31189C5.75588 1.50086 6.1897 1.63307 6.55871 1.87997C6.92772 2.12687 7.21544 2.47742 7.38564 2.8875C9.32567 7.38384 10.0598 12.3083 9.51564 17.175C9.50239 17.2905 9.51618 17.4076 9.55593 17.5168C9.59568 17.6261 9.6603 17.7247 9.74468 17.8047C9.82907 17.8847 9.9309 17.944 10.0421 17.9779C10.1534 18.0118 10.271 18.0194 10.3856 18L19.2656 16.5094C19.5861 16.4571 19.914 16.4737 20.2275 16.5581C20.8031 16.7155 21.2926 17.0951 21.5883 17.6134C21.8841 18.1317 21.9618 18.7463 21.8044 19.3219L21.3919 20.8425C21.2618 21.319 20.9786 21.7395 20.5858 22.039C20.1931 22.3386 19.7127 22.5006 19.2188 22.5H5.55939C4.98775 22.5013 4.43707 22.2849 4.01917 21.8949C3.60127 21.5048 3.3475 20.9704 3.30939 20.4L2.10939 2.30625C2.10846 2.29126 2.10846 2.27624 2.10939 2.26125C2.1079 2.16182 2.1262 2.06308 2.16322 1.97078C2.20024 1.87848 2.25525 1.79447 2.32504 1.72363C2.39484 1.65279 2.47802 1.59654 2.56975 1.55815Z" fill="black"/>
</svg>
