<svg width="24" height="24" viewBox="0 0 24 24" fill="none" xmlns="http://www.w3.org/2000/svg">
<path d="M24 19.2431C24 19.442 23.921 19.6328 23.7803 19.7735C23.6397 19.9141 23.4489 19.9931 23.25 19.9931H18.4181C18.2192 19.9931 18.0284 19.9141 17.8878 19.7735C17.7471 19.6328 17.6681 19.442 17.6681 19.2431V14.4131C17.6681 14.2142 17.7471 14.0234 17.8878 13.8828C18.0284 13.7421 18.2192 13.6631 18.4181 13.6631C18.617 13.6631 18.8078 13.7421 18.9484 13.8828C19.0891 14.0234 19.1681 14.2142 19.1681 14.4131V17.5144C19.1714 17.5074 19.1758 17.5011 19.1812 17.4956C19.2525 17.3906 19.3237 17.2856 19.3894 17.1806V17.1656C20.6158 15.2065 21.1014 12.8734 20.7584 10.5876C20.4155 8.30175 19.2666 6.21388 17.5192 4.70089C15.7718 3.1879 13.5411 2.3495 11.2297 2.33705C8.91838 2.3246 6.67873 3.13892 4.91515 4.633C3.15156 6.12707 1.98026 8.20245 1.6127 10.4844C1.24514 12.7664 1.70555 15.1046 2.91081 17.0769C4.11608 19.0491 5.98676 20.5255 8.18512 21.2394C10.3835 21.9534 12.7647 21.8578 14.8987 20.97C14.9901 20.9288 15.0889 20.9064 15.1891 20.9041C15.2893 20.9017 15.389 20.9195 15.4822 20.9563C15.5754 20.9931 15.6603 21.0483 15.7319 21.1185C15.8035 21.1887 15.8602 21.2725 15.8988 21.365C15.9374 21.4575 15.9571 21.5568 15.9567 21.6571C15.9563 21.7573 15.9357 21.8564 15.8963 21.9486C15.8569 22.0408 15.7995 22.1241 15.7273 22.1937C15.6552 22.2633 15.5698 22.3177 15.4762 22.3537C12.7671 23.4525 9.73551 23.4473 7.0302 22.3391C4.3249 21.2309 2.16081 19.1079 1.00107 16.4242C-0.158672 13.7406 -0.221938 10.7097 0.82481 7.98003C1.87156 5.25037 3.94516 3.03885 6.60187 1.81875C6.67314 1.74227 6.76014 1.68214 6.85687 1.6425C8.79651 0.83803 10.923 0.594017 12.9944 0.938212C15.0659 1.28241 16.9992 2.20099 18.5744 3.5895C20.1497 4.97801 21.3037 6.78071 21.9052 8.79257C22.5067 10.8044 22.5315 12.9447 21.9769 14.97C21.6353 16.2335 21.0722 17.4264 20.3137 18.4931H23.25C23.4489 18.4931 23.6397 18.5721 23.7803 18.7128C23.921 18.8534 24 19.0442 24 19.2431Z" fill="black"/>
</svg>
