<svg width="24" height="24" viewBox="0 0 24 24" fill="none" xmlns="http://www.w3.org/2000/svg">
<path fill-rule="evenodd" clip-rule="evenodd" d="M24.0004 7.32C24.0004 7.51106 23.9245 7.6943 23.7893 7.8294C21.7752 9.84 19.6674 10.5168 17.6352 10.5168C15.2492 10.5168 12.9675 9.58858 11.0652 8.81473L11.0634 8.814C11.0012 8.78919 10.9392 8.7644 10.8774 8.73968C9.56257 8.21399 8.3305 7.7214 7.43998 7.7214H7.38958C5.46089 7.71949 3.59824 8.42382 2.15338 9.7014C2.01016 9.82791 1.82255 9.89234 1.63183 9.88052C1.44111 9.86872 1.26289 9.78161 1.13638 9.6384C1.00987 9.49518 0.945436 9.30758 0.957251 9.11685C0.969064 8.92613 1.05616 8.74791 1.19938 8.6214C2.92095 7.10035 5.14277 6.26726 7.43998 6.2814C8.6488 6.2814 10.009 6.83196 11.5864 7.4704L11.6106 7.4802C15.1026 8.9022 19.0661 10.515 22.7706 6.8106C22.9057 6.6755 23.0889 6.5996 23.28 6.5996C23.471 6.5996 23.6543 6.6755 23.7893 6.8106C23.9245 6.9457 24.0004 7.12893 24.0004 7.32ZM17.6352 14.1168C15.249 14.1168 12.9672 13.1885 11.0649 12.4145L11.0634 12.414C9.67917 11.8524 8.36338 11.3196 7.43998 11.3196H7.39318C5.46455 11.318 3.60202 12.0223 2.15698 13.2996C2.08606 13.3622 2.0035 13.4103 1.91402 13.4411C1.82453 13.4718 1.72986 13.4845 1.63543 13.4787C1.54099 13.4728 1.44863 13.4484 1.36362 13.407C1.27862 13.3654 1.20262 13.3075 1.13998 13.2366C1.07734 13.1657 1.02928 13.0832 0.998546 12.9936C0.967806 12.9041 0.955001 12.8095 0.960846 12.715C0.966702 12.6206 0.991096 12.5283 1.03264 12.4432C1.07418 12.3583 1.13206 12.2822 1.20298 12.2196C2.91019 10.7102 5.1108 9.87786 7.38958 9.8796H7.43998C8.65138 9.8796 10.0194 10.4358 11.6016 11.0802L11.6041 11.0813C15.1009 12.503 19.0635 14.1141 22.7616 10.4106C22.8966 10.2755 23.0799 10.1996 23.2709 10.1996C23.462 10.1996 23.6453 10.2755 23.7804 10.4106C23.9155 10.5457 23.9913 10.729 23.9913 10.92C23.9913 11.111 23.9155 11.2943 23.7804 11.4294C21.7752 13.44 19.6656 14.1168 17.6352 14.1168ZM23.7893 15.0294C23.9245 14.8943 24.0004 14.711 24.0004 14.52C24.0004 14.329 23.9245 14.1457 23.7893 14.0106C23.6543 13.8755 23.471 13.7996 23.28 13.7996C23.0889 13.7996 22.9057 13.8755 22.7706 14.0106C19.0661 17.715 15.1026 16.1022 11.6106 14.6802L11.6015 14.6765C10.0177 14.0337 8.65265 13.4796 7.43998 13.4796H7.38598C5.1072 13.4778 2.90659 14.3102 1.19938 15.8196C1.12846 15.8822 1.07058 15.9583 1.02904 16.0432C0.987496 16.1283 0.963102 16.2206 0.957251 16.315C0.951401 16.4095 0.964206 16.5041 0.994946 16.5936C1.02568 16.6832 1.07374 16.7657 1.13638 16.8366C1.19902 16.9075 1.27502 16.9654 1.36002 17.007C1.44503 17.0484 1.53739 17.0728 1.63183 17.0787C1.72626 17.0845 1.82093 17.0718 1.91042 17.0411C1.9999 17.0103 2.08246 16.9622 2.15338 16.8996C3.59842 15.6223 5.46095 14.918 7.38958 14.9196H7.43998C8.33419 14.9196 9.57276 15.4162 10.8937 15.9459L11.0634 16.014L11.0649 16.0145C12.9672 16.7885 15.249 17.7168 17.6352 17.7168C19.6656 17.7168 21.7752 17.04 23.7893 15.0294Z" fill="black"/>
</svg>
